<svg width="60" height="61" viewBox="0 0 60 61" fill="none" xmlns="http://www.w3.org/2000/svg">
<path d="M0 6.02637C0 2.71266 2.68629 0.0263672 6 0.0263672H54C57.3137 0.0263672 60 2.71266 60 6.02637V54.0264C60 57.3401 57.3137 60.0264 54 60.0264H6C2.68629 60.0264 0 57.3401 0 54.0264V6.02637Z" fill="#F2F9FD"/>
<g clip-path="url(#clip0_17734_54187)">
<path d="M31.2578 15.292V26.0732L23.1719 20.6826L31.2578 15.292Z" fill="#50B7E0"/>
<path d="M23.1719 9.90137L15.0859 15.292L16.3775 19.335L23.1719 20.6826L31.2578 15.292L23.1719 9.90137Z" fill="#8DCFEC"/>
<path d="M15.0859 15.292L7 20.6826L10.5937 26.7471L15.9282 29.1055L21.7118 25.0625L23.1719 20.6826L15.0859 15.292Z" fill="#2A9DCD"/>
<path d="M15.0859 36.8546L13.9067 32.7554L10.0322 30.2285L7 31.464V42.2452L15.0859 47.6358L17.0514 46.6812L17.2198 39.7744L15.0859 36.8546Z" fill="#2A9DCD"/>
<path d="M44.9141 7.02637L36.8281 12.417L40.4218 18.4814L45.7563 20.8398L51.5399 16.7969L53 12.417L44.9141 7.02637Z" fill="#8DCFEC"/>
<path d="M23.1719 20.6826L15.0859 26.0732L18.6796 32.1377L24.0142 34.4961L29.7978 30.4531L31.2578 26.0732L23.1719 20.6826Z" fill="#8DCFEC"/>
<path d="M23.172 31.4639L21.5435 33.7099L21.375 38.5391L23.172 42.2451L27.3273 44.0981L31.2579 36.8545V26.0732L23.172 31.4639Z" fill="#50B7E0"/>
<path d="M31.2579 36.8545L29.6294 39.1005L29.4609 43.9297L31.2579 47.6357L39.3438 42.2451V31.4639L31.2579 36.8545Z" fill="#50B7E0"/>
<path d="M23.172 42.2451L21.5435 44.4911L21.375 49.3203L23.172 53.0264L31.2579 47.6357V36.8545L23.172 42.2451Z" fill="#2A9DCD"/>
<path d="M15.0864 26.0732L13.6264 27.6454L13.5703 33.8223L15.0864 36.8545L16.9395 40.5043L21.6562 42.8627L23.1724 42.2451V31.4639L15.0864 26.0732Z" fill="#2A9DCD"/>
<path d="M7 31.4639V20.6826L15.0859 26.0732V36.8545L7 31.4639Z" fill="#50B7E0"/>
<path d="M15.0859 47.6357V36.8545L23.1719 42.2451V53.0264L15.0859 47.6357Z" fill="#50B7E0"/>
<path d="M44.9142 17.8076L43.2856 20.0536L43.1172 24.8828L44.9142 28.5889L53.0001 23.1982V12.417L44.9142 17.8076Z" fill="#2A9DCD"/>
<path d="M36.8281 23.1982V12.417L44.9141 17.8076V28.5889L36.8281 23.1982Z" fill="#50B7E0"/>
<path d="M39.3438 31.4639L31.2578 26.0732V36.8545L39.3438 31.4639Z" fill="#2A9DCD"/>
</g>
<defs>
<clipPath id="clip0_17734_54187">
<rect width="46" height="46" fill="white" transform="translate(7 7.02637)"/>
</clipPath>
</defs>
</svg>
