<svg width="48" height="49" viewBox="0 0 48 49" fill="none" xmlns="http://www.w3.org/2000/svg">
<path d="M13.5 21.0181C17.6325 21.0181 21 17.6506 21 13.5181C21 9.38557 17.6325 6.01807 13.5 6.01807C9.3675 6.01807 6 9.38557 6 13.5181C6 17.6506 9.3675 21.0181 13.5 21.0181ZM13.5 7.51807C16.8075 7.51807 19.5 10.2106 19.5 13.5181C19.5 16.8256 16.8075 19.5181 13.5 19.5181C10.1925 19.5181 7.5 16.8256 7.5 13.5181C7.5 10.2106 10.1925 7.51807 13.5 7.51807Z" fill="#175675"/>
<path d="M14.1752 15.4688H12.8252C12.4952 15.4688 12.2252 15.1988 12.2252 14.8688C12.2252 14.4563 11.8877 14.1188 11.4752 14.1188C11.0627 14.1188 10.7252 14.4563 10.7252 14.8688C10.7252 16.0013 11.6252 16.9238 12.7502 16.9613V17.5688C12.7502 17.9813 13.0877 18.3188 13.5002 18.3188C13.9127 18.3188 14.2502 17.9813 14.2502 17.5688V16.9613C14.8352 16.9388 15.3902 16.6838 15.7727 16.2263C16.1702 15.7538 16.3427 15.1313 16.2452 14.5163C16.0802 13.5188 15.1577 12.7613 14.1002 12.7613H12.8252C12.6452 12.7613 12.4802 12.6863 12.3677 12.5513C12.3002 12.4688 12.1952 12.3038 12.2327 12.0563C12.2777 11.7788 12.5702 11.5613 12.8927 11.5613H14.1677C14.4977 11.5613 14.7677 11.8313 14.7677 12.1613C14.7677 12.5738 15.1052 12.9113 15.5177 12.9113C15.9302 12.9113 16.2677 12.5738 16.2677 12.1613C16.2677 11.0288 15.3677 10.1063 14.2427 10.0688V9.4613C14.2427 9.0488 13.9052 8.7113 13.4927 8.7113C13.0802 8.7113 12.7427 9.0488 12.7427 9.4613V10.0763C11.7452 10.1438 10.8977 10.8638 10.7477 11.8163C10.6502 12.4313 10.8227 13.0538 11.2202 13.5263C11.6177 13.9988 12.2027 14.2688 12.8177 14.2688H14.0927C14.4227 14.2688 14.7077 14.4863 14.7527 14.7638C14.7902 15.0113 14.6852 15.1763 14.6177 15.2588C14.5052 15.3938 14.3402 15.4688 14.1602 15.4688H14.1752Z" fill="#175675"/>
<path d="M42 2.26807H6C3.93 2.26807 2.25 3.94807 2.25 6.01807V42.0181C2.25 44.0881 3.93 45.7681 6 45.7681H42C44.07 45.7681 45.75 44.0881 45.75 42.0181V6.01807C45.75 3.94807 44.07 2.26807 42 2.26807ZM23.25 44.2681H6C4.7625 44.2681 3.75 43.2556 3.75 42.0181V24.7681H23.25V44.2681ZM23.25 23.2681H3.75V6.01807C3.75 4.78057 4.7625 3.76807 6 3.76807H23.25V23.2681ZM44.25 42.0181C44.25 43.2556 43.2375 44.2681 42 44.2681H24.75V24.7681H44.25V42.0181ZM44.25 23.2681H24.75V3.76807H42C43.2375 3.76807 44.25 4.78057 44.25 6.01807V23.2681Z" fill="#1B7FAE"/>
<path d="M34.95 6.16567C34.68 5.96317 34.32 5.96317 34.05 6.16567L28.05 10.6657C27.8625 10.8082 27.75 11.0257 27.75 11.2657V20.2657C27.75 20.6782 28.0875 21.0157 28.5 21.0157H40.5C40.9125 21.0157 41.25 20.6782 41.25 20.2657V11.2657C41.25 11.0332 41.1375 10.8082 40.95 10.6657L34.95 6.16567ZM35.25 19.5157H33.75V17.2657C33.75 16.8532 34.0875 16.5157 34.5 16.5157C34.9125 16.5157 35.25 16.8532 35.25 17.2657V19.5157ZM39.75 19.5157H36.75V17.2657C36.75 16.0282 35.7375 15.0157 34.5 15.0157C33.2625 15.0157 32.25 16.0282 32.25 17.2657V19.5157H29.25V11.6407L34.5 7.70317L39.75 11.6407V19.5157Z" fill="#175675"/>
<path d="M27.75 42.0181H41.25C41.6625 42.0181 42 41.6806 42 41.2681V27.7681C42 27.3556 41.6625 27.0181 41.25 27.0181H27.75C27.3375 27.0181 27 27.3556 27 27.7681V41.2681C27 41.6806 27.3375 42.0181 27.75 42.0181ZM28.5 28.5181H40.5V40.5181H28.5V28.5181Z" fill="#175675"/>
<path d="M6.5397 42.25H12.4047C12.7572 42.25 13.1022 42.1 13.3422 41.845C13.4022 41.785 13.4547 41.71 13.4997 41.6425C13.5447 41.7175 13.5972 41.785 13.6572 41.845C13.8972 42.1 14.2422 42.25 14.5947 42.25H20.4597C20.8122 42.25 21.1572 42.1 21.3972 41.845C21.6372 41.59 21.7647 41.2375 21.7497 40.885L21.4497 35.4625C21.3972 34.495 20.5947 33.7375 19.6272 33.7375H17.7372L17.4447 28.4575C17.3922 27.49 16.5897 26.7325 15.6222 26.7325H11.4597C10.4922 26.7325 9.6897 27.49 9.6372 28.45L9.3222 33.7375H7.4172C6.4497 33.7375 5.6472 34.495 5.5947 35.455L5.2722 40.8775C5.2497 41.23 5.3772 41.5825 5.6172 41.8375C5.8572 42.0925 6.2022 42.2425 6.5547 42.2425L6.5397 42.25ZM19.6197 35.2375C19.7922 35.2375 19.9347 35.3725 19.9497 35.545L20.2422 40.7425H14.8197L15.1272 35.545C15.1347 35.3725 15.2847 35.2375 15.4572 35.2375H19.6197ZM11.1147 28.54C11.1222 28.3675 11.2722 28.2325 11.4447 28.2325H15.6072C15.7797 28.2325 15.9222 28.3675 15.9372 28.54L16.2297 33.7375H10.8072L11.1147 28.54ZM7.0722 35.5525C7.0797 35.38 7.2297 35.245 7.4022 35.245H11.5647C11.7372 35.245 11.8797 35.38 11.8947 35.5525L12.1797 40.75H6.7572L7.0647 35.5525H7.0722Z" fill="#175675"/>
<path d="M38.25 30.7681H30.75C30.3375 30.7681 30 31.1056 30 31.5181C30 31.9306 30.3375 32.2681 30.75 32.2681H38.25C38.6625 32.2681 39 31.9306 39 31.5181C39 31.1056 38.6625 30.7681 38.25 30.7681Z" fill="#175675"/>
<path d="M38.25 33.7681H30.75C30.3375 33.7681 30 34.1056 30 34.5181C30 34.9306 30.3375 35.2681 30.75 35.2681H38.25C38.6625 35.2681 39 34.9306 39 34.5181C39 34.1056 38.6625 33.7681 38.25 33.7681Z" fill="#175675"/>
<path d="M38.25 36.7681H30.75C30.3375 36.7681 30 37.1056 30 37.5181C30 37.9306 30.3375 38.2681 30.75 38.2681H38.25C38.6625 38.2681 39 37.9306 39 37.5181C39 37.1056 38.6625 36.7681 38.25 36.7681Z" fill="#175675"/>
</svg>
