<svg width="16" height="17" viewBox="0 0 16 17" fill="none" xmlns="http://www.w3.org/2000/svg">
<path d="M2.97984 8.37606L1.81984 7.21606L0.666504 8.37606" stroke="#09090B" stroke-width="1.33" stroke-linecap="round" stroke-linejoin="round"/>
<path d="M13.02 9.14941L14.18 10.3094L15.34 9.14941" stroke="#09090B" stroke-width="1.33" stroke-linecap="round" stroke-linejoin="round"/>
<path d="M14.1735 10.3094V8.7627C14.1735 5.34936 11.4068 2.58936 8.00018 2.58936C6.05351 2.58936 4.31351 3.49604 3.18018 4.90271" stroke="#09090B" stroke-width="1.33" stroke-linecap="round" stroke-linejoin="round"/>
<path d="M1.82666 7.21606V8.76274C1.82666 12.1761 4.59333 14.9361 8 14.9361C9.94666 14.9361 11.6867 14.0294 12.82 12.6227" stroke="#09090B" stroke-width="1.33" stroke-linecap="round" stroke-linejoin="round"/>
<path d="M6 6.42944H8.92C9.56667 6.42944 10.0867 7.01611 10.0867 7.59611C10.0867 8.24278 9.56667 8.76278 8.92 8.76278H6V6.42944Z" stroke="#09090B" stroke-width="1.33" stroke-miterlimit="10" stroke-linecap="round" stroke-linejoin="round"/>
<path d="M6 8.7627H9.33333C10.0667 8.7627 10.6667 9.2827 10.6667 9.92936C10.6667 10.576 10.0667 11.096 9.33333 11.096H6V8.7627Z" stroke="#09090B" stroke-width="1.33" stroke-miterlimit="10" stroke-linecap="round" stroke-linejoin="round"/>
<path d="M7.8667 11.0959V12.2626" stroke="#09090B" stroke-width="1.33" stroke-miterlimit="10" stroke-linecap="round" stroke-linejoin="round"/>
<path d="M7.8667 5.2627V6.42936" stroke="#09090B" stroke-width="1.33" stroke-miterlimit="10" stroke-linecap="round" stroke-linejoin="round"/>
</svg>
