<svg width="48" height="49" viewBox="0 0 48 49" fill="none" xmlns="http://www.w3.org/2000/svg">
<path d="M34.6916 45.5463C34.4897 45.5455 34.2913 45.4947 34.1157 45.3989L24.2722 39.9391C24.0965 39.8426 23.9506 39.7031 23.8494 39.5348C23.7482 39.3665 23.6954 39.1755 23.6963 38.9812V28.0763C23.6954 27.882 23.7482 27.691 23.8494 27.5227C23.9506 27.3545 24.0965 27.2149 24.2722 27.1185L34.1157 21.6955C34.2906 21.5978 34.4893 21.5463 34.6916 21.5463C34.8939 21.5463 35.0927 21.5978 35.2675 21.6955L45.1187 27.1479C45.2934 27.2456 45.4384 27.3853 45.5394 27.5533C45.6405 27.7214 45.6939 27.9118 45.6946 28.1058V39.0107C45.6939 39.2047 45.6405 39.3951 45.5394 39.5631C45.4384 39.7312 45.2934 39.8709 45.1187 39.9686L35.2675 45.3989C35.0919 45.4947 34.8936 45.5455 34.6916 45.5463ZM25.9998 38.3476L34.6916 43.159L43.3911 38.3476V28.71L34.6916 23.9059L25.9998 28.71V38.3476Z" fill="#1B7FAE"/>
<path d="M34.6911 34.634C34.4892 34.6332 34.2908 34.5824 34.1153 34.4866L24.2717 29.0637C24.0963 28.9668 23.9506 28.8272 23.8493 28.659C23.7479 28.4909 23.6946 28.3 23.6946 28.1058C23.6946 27.9116 23.7479 27.7207 23.8493 27.5526C23.9506 27.3844 24.0963 27.2448 24.2717 27.1479L34.1157 21.6955C34.2906 21.5978 34.4893 21.5463 34.6916 21.5463C34.8939 21.5463 35.0927 21.5978 35.2675 21.6955L45.1187 27.1479C45.2934 27.2456 45.4384 27.3853 45.5394 27.5533C45.6405 27.7214 45.6939 27.9118 45.6946 28.1058C45.6946 28.3 45.642 28.4909 45.5407 28.659C45.4394 28.8272 45.2937 28.9668 45.1182 29.0637L35.267 34.5161C35.0886 34.6017 34.8904 34.6423 34.6911 34.634ZM27.1588 28.0763L34.6988 32.2541L42.2389 28.0763L34.6916 23.9059L27.1588 28.0763Z" fill="#1B7FAE"/>
<path d="M34.6918 45.2733C34.3863 45.2733 34.0934 45.1568 33.8774 44.9495C33.6614 44.7423 33.54 44.4611 33.54 44.168V33.5284C33.54 33.2353 33.6614 32.9541 33.8774 32.7469C34.0934 32.5396 34.3863 32.4232 34.6918 32.4232C34.9972 32.4232 35.2902 32.5396 35.5062 32.7469C35.7222 32.9541 35.8435 33.2353 35.8435 33.5284V44.1459C35.8466 44.2929 35.8191 44.439 35.7625 44.5757C35.706 44.7123 35.6217 44.8368 35.5144 44.9418C35.4072 45.0467 35.2792 45.1301 35.1379 45.1871C34.9967 45.244 34.845 45.2733 34.6918 45.2733Z" fill="#1B7FAE"/>
<path d="M5.83736 23.7142H13.3966C13.8509 23.7142 14.2956 23.5209 14.6049 23.1922C14.6822 23.1149 14.7499 23.0182 14.8079 22.9312C14.8659 23.0279 14.9335 23.1149 15.0109 23.1922C15.3202 23.5209 15.7649 23.7142 16.2192 23.7142H23.7784C24.2327 23.7142 24.6774 23.5209 24.9867 23.1922C25.296 22.8636 25.4604 22.4093 25.441 21.9549L25.0544 14.966C24.9867 13.7191 23.9524 12.7427 22.7054 12.7427H20.2695L19.8925 5.93753C19.8248 4.69055 18.7905 3.71423 17.5435 3.71423H12.1786C10.9316 3.71423 9.89729 4.69055 9.82963 5.92786L9.42364 12.7427H6.96834C5.72136 12.7427 4.68705 13.7191 4.61938 14.9564L4.20372 21.9453C4.17472 22.3996 4.33905 22.8539 4.64838 23.1826C4.95771 23.5112 5.40237 23.7046 5.85669 23.7046L5.83736 23.7142ZM22.6957 14.676C22.9181 14.676 23.1017 14.85 23.1211 15.0724L23.4981 21.7713H16.5092L16.9055 15.0724C16.9152 14.85 17.1085 14.676 17.3308 14.676H22.6957ZM11.7339 6.04386C11.7436 5.82153 11.9369 5.64753 12.1593 5.64753H17.5242C17.7465 5.64753 17.9302 5.82153 17.9495 6.04386L18.3265 12.7427H11.3376L11.7339 6.04386ZM6.52368 15.082C6.53335 14.8597 6.72668 14.6857 6.94901 14.6857H12.3139C12.5362 14.6857 12.7199 14.8597 12.7392 15.082L13.1066 21.7809H6.11769L6.51402 15.082H6.52368Z" fill="#1B7FAE" stroke="#1B7FAE" stroke-width="0.2"/>
<path d="M19.7922 40.2025C20.3445 40.2025 20.7922 39.7548 20.7922 39.2025C20.7922 38.6502 20.3445 38.2025 19.7922 38.2025V40.2025ZM19.7922 38.2025H14.7922V40.2025H19.7922V38.2025ZM10.7922 34.2025L10.7922 29.2025H8.79224L8.79224 34.2025H10.7922ZM14.7922 38.2025C12.5831 38.2025 10.7922 36.4117 10.7922 34.2025H8.79224C8.79224 37.5162 11.4785 40.2025 14.7922 40.2025V38.2025Z" fill="#175675"/>
<path d="M13.0002 31.89L10.4144 28.7709C10.028 28.3048 9.31918 28.2863 8.90899 28.7317L6.00024 31.89" stroke="#175675" stroke-width="2" stroke-linecap="round"/>
<path d="M29 2.96729C28.4477 2.96729 28 3.415 28 3.96729C28 4.51957 28.4477 4.96729 29 4.96729V2.96729ZM29 4.96729H34V2.96729H29V4.96729ZM38 8.96729V13.9673H40V8.96729H38ZM34 4.96729C36.2091 4.96729 38 6.75815 38 8.96729H40C40 5.65358 37.3137 2.96729 34 2.96729V4.96729Z" fill="#175675"/>
<path d="M35.792 11.2798L38.3778 14.3989C38.7643 14.865 39.4731 14.8835 39.8832 14.4381L42.792 11.2798" stroke="#175675" stroke-width="2" stroke-linecap="round"/>
</svg>
