<svg width="60" height="61" viewBox="0 0 60 61" fill="none" xmlns="http://www.w3.org/2000/svg">
<path d="M0 6.05274C0 2.73903 2.68629 0.0527344 6 0.0527344H54C57.3137 0.0527344 60 2.73903 60 6.05273V54.0527C60 57.3664 57.3137 60.0527 54 60.0527H6C2.68629 60.0527 0 57.3664 0 54.0527V6.05274Z" fill="white"/>
<path d="M30 49.459C40.7178 49.459 49.4062 40.7705 49.4062 30.0527C49.4062 19.335 40.7178 10.6465 30 10.6465C19.2822 10.6465 10.5938 19.335 10.5938 30.0527C10.5938 40.7705 19.2822 49.459 30 49.459Z" fill="#2A9DCD"/>
<path d="M30 45.1465C38.336 45.1465 45.0938 38.3888 45.0938 30.0527C45.0938 21.7167 38.336 14.959 30 14.959C21.664 14.959 14.9062 21.7167 14.9062 30.0527C14.9062 38.3888 21.664 45.1465 30 45.1465Z" fill="#2A9DCD"/>
<path d="M42.9352 28.6145C42.9359 26.3357 42.4193 24.0865 41.4242 22.0364C40.4292 19.9863 38.9817 18.1889 37.1909 16.7796C33.8695 14.9774 29.9928 14.4872 26.3273 15.4057C22.6618 16.3242 19.4744 18.5847 17.3953 21.7402C15.3163 24.8957 14.4969 28.7164 15.0992 32.4469C15.7015 36.1774 17.6817 39.5461 20.6482 41.887C22.9477 43.1321 25.5311 43.7586 28.1455 43.7052C30.7599 43.6518 33.3156 42.9203 35.5623 41.5823C37.809 40.2443 39.6697 38.3458 40.9621 36.0726C42.2546 33.7994 42.9344 31.2295 42.9352 28.6145Z" fill="#50B7E0"/>
<path d="M17.0491 23.8062C20.7847 23.8062 23.8131 20.7779 23.8131 17.0423C23.8131 13.3066 20.7847 10.2783 17.0491 10.2783C13.3135 10.2783 10.2852 13.3066 10.2852 17.0423C10.2852 20.7779 13.3135 23.8062 17.0491 23.8062Z" fill="#8DCFEC"/>
<path d="M22.1207 16.1943C22.1209 15.0999 21.8553 14.0218 21.3466 13.0529C20.8378 12.0839 20.1013 11.253 19.2003 10.6318C17.6572 10.1194 15.9811 10.18 14.479 10.8025C12.9768 11.425 11.7493 12.5679 11.021 14.0217C10.2928 15.4755 10.1126 17.143 10.5135 18.7188C10.9144 20.2946 11.8696 21.6733 13.2041 22.6023C14.221 22.9462 15.3052 23.0428 16.3668 22.884C17.4285 22.7252 18.437 22.3155 19.3087 21.6891C20.1804 21.0626 20.8902 20.2374 21.3792 19.2818C21.8682 18.3262 22.1224 17.2678 22.1207 16.1943Z" fill="#C3E4F4"/>
<path d="M42.0993 48.7143C45.757 48.7143 48.7221 45.7492 48.7221 42.0915C48.7221 38.4339 45.757 35.4688 42.0993 35.4688C38.4417 35.4688 35.4766 38.4339 35.4766 42.0915C35.4766 45.7492 38.4417 48.7143 42.0993 48.7143Z" fill="#8DCFEC"/>
<path d="M47.0654 41.2614C47.0657 40.1899 46.8056 39.1343 46.3075 38.1856C45.8094 37.2368 45.0882 36.4233 44.2061 35.815C42.6951 35.3133 41.054 35.3726 39.5832 35.9822C38.1125 36.5917 36.9105 37.7107 36.1975 39.1342C35.4844 40.5576 35.308 42.1903 35.7006 43.7333C36.0931 45.2762 37.0283 46.626 38.335 47.5357C39.3306 47.8724 40.3922 47.967 41.4317 47.8115C42.4712 47.656 43.4586 47.2549 44.3121 46.6415C45.1656 46.0281 45.8606 45.2201 46.3395 44.2845C46.8183 43.3488 47.0672 42.3125 47.0654 41.2614Z" fill="#C3E4F4"/>
<path d="M30.7188 29.3987V23.686C31.3341 23.8449 31.8795 24.2032 32.2696 24.7049C32.6597 25.2066 32.8726 25.8235 32.875 26.459H34.3125C34.3106 25.4408 33.9489 24.4561 33.2913 23.6788C32.6337 22.9015 31.7225 22.3817 30.7188 22.2112V19.2715H29.2812V22.2112C28.2768 22.3801 27.3647 22.8995 26.7069 23.6772C26.0491 24.4548 25.6882 25.4404 25.6882 26.459C25.6882 27.4775 26.0491 28.4631 26.7069 29.2408C27.3647 30.0185 28.2768 30.5379 29.2812 30.7068V36.4194C28.6659 36.2605 28.1205 35.9022 27.7304 35.4005C27.3403 34.8988 27.1274 34.282 27.125 33.6465H25.6875C25.6894 34.6646 26.0511 35.6493 26.7087 36.4266C27.3663 37.2039 28.2775 37.7238 29.2812 37.8943V40.834H30.7188V37.8943C31.7232 37.7254 32.6353 37.206 33.2931 36.4283C33.9509 35.6506 34.3118 34.665 34.3118 33.6465C34.3118 32.6279 33.9509 31.6423 33.2931 30.8647C32.6353 30.087 31.7232 29.5676 30.7188 29.3987ZM27.125 26.459C27.1274 25.8235 27.3403 25.2066 27.7304 24.7049C28.1205 24.2032 28.6659 23.8449 29.2812 23.686V29.2319C28.6659 29.073 28.1205 28.7147 27.7304 28.213C27.3403 27.7113 27.1274 27.0945 27.125 26.459ZM30.7188 36.4194V30.8735C31.3351 31.0304 31.8817 31.3882 32.272 31.8904C32.6624 32.3925 32.8743 33.0104 32.8743 33.6465C32.8743 34.2825 32.6624 34.9004 32.272 35.4026C31.8817 35.9048 31.3351 36.2625 30.7188 36.4194Z" fill="#C3E4F4"/>
<path d="M42.5382 41.2633C42.3745 41.2633 42.2144 41.2147 42.0783 41.1237C41.9422 41.0328 41.8361 40.9035 41.7734 40.7522C41.7107 40.6009 41.6943 40.4345 41.7263 40.2739C41.7582 40.1133 41.8371 39.9658 41.9528 39.85C42.0686 39.7343 42.2161 39.6554 42.3767 39.6235C42.5373 39.5915 42.7038 39.6079 42.855 39.6706C43.0063 39.7332 43.1356 39.8393 43.2266 39.9755C43.3175 40.1116 43.3661 40.2717 43.3661 40.4354H45.0218C45.0196 39.9236 44.8594 39.4249 44.5631 39.0076C44.2667 38.5903 43.8486 38.2748 43.3661 38.1042V37.124H41.7104V38.1042C41.1585 38.2986 40.6932 38.682 40.3969 39.1866C40.1006 39.6912 39.9925 40.2844 40.0916 40.8611C40.1908 41.4378 40.4908 41.9607 40.9386 42.3374C41.3864 42.714 41.9531 42.9201 42.5382 42.9189C42.702 42.9189 42.862 42.9675 42.9982 43.0585C43.1343 43.1494 43.2404 43.2787 43.3031 43.43C43.3657 43.5813 43.3821 43.7477 43.3502 43.9083C43.3182 44.0689 43.2394 44.2164 43.1236 44.3322C43.0078 44.4479 42.8603 44.5268 42.6997 44.5587C42.5391 44.5907 42.3727 44.5743 42.2214 44.5116C42.0702 44.449 41.9409 44.3429 41.8499 44.2067C41.7589 44.0706 41.7104 43.9105 41.7104 43.7468H40.0547C40.0568 44.2586 40.217 44.7573 40.5134 45.1746C40.8098 45.5919 41.2278 45.9074 41.7104 46.078V47.0582H43.3661V46.078C43.918 45.8836 44.3833 45.5002 44.6796 44.9956C44.9758 44.491 45.084 43.8978 44.9848 43.3211C44.8857 42.7444 44.5856 42.2215 44.1378 41.8448C43.69 41.4682 43.1234 41.2621 42.5382 41.2633Z" fill="#50B7E0"/>
<path d="M17.0482 16.1952C16.881 16.1952 16.7175 16.1457 16.5785 16.0528C16.4394 15.9598 16.3311 15.8278 16.2671 15.6733C16.2031 15.5188 16.1863 15.3488 16.219 15.1848C16.2516 15.0208 16.3321 14.8701 16.4503 14.7519C16.5686 14.6337 16.7192 14.5531 16.8833 14.5205C17.0473 14.4879 17.2173 14.5046 17.3718 14.5686C17.5263 14.6326 17.6583 14.741 17.7512 14.88C17.8441 15.0191 17.8937 15.1825 17.8937 15.3497H19.5847C19.5825 14.827 19.4189 14.3177 19.1162 13.8915C18.8135 13.4653 18.3865 13.1431 17.8937 12.9688V11.9678H16.2027V12.9688C15.639 13.1674 15.1638 13.559 14.8612 14.0743C14.5586 14.5897 14.4482 15.1955 14.5494 15.7845C14.6507 16.3735 14.9572 16.9076 15.4145 17.2923C15.8718 17.677 16.4506 17.8874 17.0482 17.8862C17.2154 17.8862 17.3789 17.9358 17.5179 18.0287C17.657 18.1216 17.7653 18.2537 17.8293 18.4082C17.8933 18.5627 17.9101 18.7327 17.8774 18.8967C17.8448 19.0607 17.7643 19.2113 17.6461 19.3296C17.5278 19.4478 17.3772 19.5283 17.2131 19.561C17.0491 19.5936 16.8791 19.5769 16.7246 19.5129C16.5701 19.4489 16.4381 19.3405 16.3452 19.2015C16.2523 19.0624 16.2027 18.8989 16.2027 18.7317H14.5117C14.5139 19.2545 14.6775 19.7638 14.9802 20.1899C15.2829 20.6161 15.7099 20.9384 16.2027 21.1126V22.1137H17.8937V21.1126C18.4574 20.9141 18.9326 20.5225 19.2352 20.0071C19.5378 19.4918 19.6482 18.886 19.547 18.297C19.4457 17.708 19.1392 17.1739 18.6819 16.7892C18.2246 16.4045 17.6458 16.1941 17.0482 16.1952Z" fill="#50B7E0"/>
</svg>
