<svg width="60" height="61" viewBox="0 0 60 61" fill="none" xmlns="http://www.w3.org/2000/svg">
<path d="M0 6.05274C0 2.73903 2.68629 0.0527344 6 0.0527344H54C57.3137 0.0527344 60 2.73903 60 6.05273V54.0527C60 57.3664 57.3137 60.0527 54 60.0527H6C2.68629 60.0527 0 57.3664 0 54.0527V6.05274Z" fill="white"/>
<path d="M29.2812 20.709H30.7188V32.9277H29.2812V20.709Z" fill="#2A9DCD"/>
<path d="M30 21.4277C33.5726 21.4277 36.4688 18.5316 36.4688 14.959C36.4688 11.3864 33.5726 8.49023 30 8.49023C26.4274 8.49023 23.5312 11.3864 23.5312 14.959C23.5312 18.5316 26.4274 21.4277 30 21.4277Z" fill="#50B7E0"/>
<path d="M35.0311 14.2405C35.0318 13.1798 34.7714 12.1353 34.2729 11.1991C33.7744 10.2628 33.0531 9.46369 32.1726 8.87218C30.6896 8.34762 29.0662 8.38148 27.6062 8.96741C26.1463 9.55334 24.9499 10.6512 24.241 12.0555C23.5321 13.4598 23.3592 15.0743 23.7546 16.5969C24.1501 18.1195 25.0869 19.4458 26.3896 20.3276C27.3652 20.6789 28.4112 20.7899 29.4388 20.6513C30.4665 20.5127 31.4456 20.1285 32.2934 19.5314C33.1411 18.9342 33.8325 18.1416 34.3091 17.2207C34.7856 16.2997 35.0333 15.2775 35.0311 14.2405Z" fill="#C3E4F4"/>
<path d="M32.875 13.5215V12.8027C32.875 12.2309 32.6478 11.6824 32.2434 11.278C31.8391 10.8737 31.2906 10.6465 30.7188 10.6465V9.92773H29.2812V10.6465C28.7094 10.6465 28.1609 10.8737 27.7566 11.278C27.3522 11.6824 27.125 12.2309 27.125 12.8027V13.5215C27.125 14.0934 27.3522 14.6418 27.7566 15.0462C28.1609 15.4506 28.7094 15.6777 29.2812 15.6777V17.834C29.0906 17.834 28.9078 17.7583 28.773 17.6235C28.6382 17.4887 28.5625 17.3059 28.5625 17.1152V16.3965H27.125V17.1152C27.125 17.6871 27.3522 18.2356 27.7566 18.6399C28.1609 19.0443 28.7094 19.2715 29.2812 19.2715V19.9902H30.7188V19.2715C31.2906 19.2715 31.8391 19.0443 32.2434 18.6399C32.6478 18.2356 32.875 17.6871 32.875 17.1152V16.3965C32.875 15.8246 32.6478 15.2762 32.2434 14.8718C31.8391 14.4674 31.2906 14.2402 30.7188 14.2402V12.084C30.9094 12.084 31.0922 12.1597 31.227 12.2945C31.3618 12.4293 31.4375 12.6121 31.4375 12.8027V13.5215H32.875ZM31.4375 16.3965V17.1152C31.4375 17.3059 31.3618 17.4887 31.227 17.6235C31.0922 17.7583 30.9094 17.834 30.7188 17.834V15.6777C30.9094 15.6777 31.0922 15.7535 31.227 15.8883C31.3618 16.023 31.4375 16.2059 31.4375 16.3965ZM29.2812 14.2402C29.0906 14.2402 28.9078 14.1645 28.773 14.0297C28.6382 13.8949 28.5625 13.7121 28.5625 13.5215V12.8027C28.5625 12.6121 28.6382 12.4293 28.773 12.2945C28.9078 12.1597 29.0906 12.084 29.2812 12.084V14.2402Z" fill="#50B7E0"/>
<path d="M42.9375 38.6777H17.0625C16.2686 38.6777 15.625 39.3213 15.625 40.1152V42.9902C15.625 43.7841 16.2686 44.4277 17.0625 44.4277H42.9375C43.7314 44.4277 44.375 43.7841 44.375 42.9902V40.1152C44.375 39.3213 43.7314 38.6777 42.9375 38.6777Z" fill="#2A9DCD"/>
<path d="M17.0625 38.6777C16.6813 38.6777 16.3156 38.8292 16.046 39.0988C15.7765 39.3684 15.625 39.734 15.625 40.1152V42.2715H40.7812C41.1625 42.2715 41.5281 42.12 41.7977 41.8505C42.0673 41.5809 42.2188 41.2152 42.2188 40.834V38.6777H17.0625Z" fill="#8DCFEC"/>
<path d="M41.5 44.4277L39.3481 49.8083C39.1346 50.3417 38.7662 50.799 38.2904 51.1211C37.8146 51.4432 37.2532 51.6153 36.6786 51.6152H23.3214C22.7468 51.6153 22.1854 51.4432 21.7096 51.1211C21.2338 50.799 20.8654 50.3417 20.6519 49.8083L18.5 44.4277" fill="#1B7FAE"/>
<path d="M41.9187 38.6776C41.6822 38.1404 41.318 37.6692 40.8577 37.305C40.3974 36.9409 39.8551 36.6948 39.278 36.5882C39.1649 35.9608 38.8861 35.3752 38.4703 34.892C38.0546 34.4088 37.5171 34.0457 36.9137 33.8404C36.3102 33.635 35.6628 33.5949 35.0387 33.7242C34.4145 33.8535 33.8363 34.1475 33.3641 34.5757C33.1145 33.8836 32.6576 33.2854 32.0557 32.8626C31.4537 32.4398 30.736 32.2129 30.0003 32.2129C29.2647 32.2129 28.547 32.4398 27.945 32.8626C27.343 33.2854 26.8861 33.8836 26.6366 34.5757C26.1641 34.1475 25.5857 33.8535 24.9613 33.7244C24.3368 33.5954 23.6892 33.6358 23.0857 33.8415C22.4822 34.0473 21.9448 34.4108 21.5292 34.8945C21.1137 35.3781 20.8352 35.9641 20.7227 36.5918C20.1458 36.6975 19.6035 36.9429 19.1432 37.3065C18.6829 37.6701 18.3185 38.1408 18.082 38.6776" fill="#C3E4F4"/>
<path d="M35.75 23.584H38.625C38.625 25.109 38.0192 26.5715 36.9409 27.6498C35.8625 28.7282 34.4 29.334 32.875 29.334H30C30 27.809 30.6058 26.3465 31.6841 25.2681C32.7625 24.1898 34.225 23.584 35.75 23.584Z" fill="#8DCFEC"/>
<path d="M30 29.334H27.125C25.6 29.334 24.1375 28.7282 23.0591 27.6498C21.9808 26.5715 21.375 25.109 21.375 23.584H24.25C25.775 23.584 27.2375 24.1898 28.3159 25.2681C29.3942 26.3465 30 27.809 30 29.334Z" fill="#2A9DCD"/>
<path d="M42.9375 20.709C44.1284 20.709 45.0938 19.7436 45.0938 18.5527C45.0938 17.3619 44.1284 16.3965 42.9375 16.3965C41.7466 16.3965 40.7812 17.3619 40.7812 18.5527C40.7812 19.7436 41.7466 20.709 42.9375 20.709Z" fill="#50B7E0"/>
<path d="M40.7812 18.5527C40.783 19.0316 40.9455 19.4961 41.2427 19.8716C41.46 19.9474 41.6882 19.9874 41.9183 19.9902C42.3222 19.9923 42.7186 19.8803 43.0617 19.6672C43.4048 19.454 43.6807 19.1483 43.8578 18.7852C44.0348 18.4222 44.1058 18.0165 44.0625 17.6149C44.0192 17.2133 43.8635 16.8321 43.6131 16.5151C43.3958 16.4393 43.1676 16.3993 42.9375 16.3965C42.3656 16.3965 41.8172 16.6237 41.4128 17.028C41.0084 17.4324 40.7812 17.9809 40.7812 18.5527Z" fill="#C3E4F4"/>
<path d="M17.0625 20.709C18.2534 20.709 19.2188 19.7436 19.2188 18.5527C19.2188 17.3619 18.2534 16.3965 17.0625 16.3965C15.8716 16.3965 14.9062 17.3619 14.9062 18.5527C14.9062 19.7436 15.8716 20.709 17.0625 20.709Z" fill="#50B7E0"/>
<path d="M40.7813 30.7715C40.4969 30.7715 40.219 30.6872 39.9826 30.5292C39.7462 30.3713 39.562 30.1468 39.4532 29.8841C39.3444 29.6214 39.3159 29.3324 39.3714 29.0535C39.4268 28.7747 39.5637 28.5186 39.7648 28.3175C39.9658 28.1165 40.222 27.9796 40.5008 27.9241C40.7797 27.8686 41.0687 27.8971 41.3314 28.0059C41.594 28.1147 41.8185 28.299 41.9765 28.5354C42.1344 28.7717 42.2188 29.0497 42.2188 29.334C42.2188 29.7152 42.0673 30.0809 41.7977 30.3505C41.5281 30.62 41.1625 30.7715 40.7813 30.7715Z" fill="#C3E4F4"/>
<path d="M19.2188 30.7715C18.9344 30.7715 18.6565 30.6872 18.4201 30.5292C18.1837 30.3713 17.9995 30.1468 17.8907 29.8841C17.7819 29.6214 17.7534 29.3324 17.8089 29.0535C17.8643 28.7747 18.0012 28.5186 18.2023 28.3175C18.4033 28.1165 18.6595 27.9796 18.9383 27.9241C19.2172 27.8686 19.5062 27.8971 19.7689 28.0059C20.0315 28.1147 20.256 28.299 20.414 28.5354C20.5719 28.7717 20.6563 29.0497 20.6563 29.334C20.6563 29.7152 20.5048 30.0809 20.2352 30.3505C19.9656 30.62 19.6 30.7715 19.2188 30.7715Z" fill="#C3E4F4"/>
<path d="M14.9062 18.5527C14.908 19.0316 15.0705 19.4961 15.3677 19.8716C15.585 19.9474 15.8132 19.9874 16.0433 19.9902C16.4472 19.9923 16.8436 19.8803 17.1867 19.6672C17.5298 19.454 17.8057 19.1483 17.9828 18.7852C18.1598 18.4222 18.2308 18.0165 18.1875 17.6149C18.1442 17.2133 17.9885 16.8321 17.7381 16.5151C17.5208 16.4393 17.2926 16.3993 17.0625 16.3965C16.4906 16.3965 15.9422 16.6237 15.5378 17.028C15.1334 17.4324 14.9062 17.9809 14.9062 18.5527Z" fill="#C3E4F4"/>
</svg>
