<svg width="20" height="20" viewBox="0 0 20 20" fill="none" xmlns="http://www.w3.org/2000/svg">
<path d="M10.0013 18.3366C14.6037 18.3366 18.3346 14.6056 18.3346 10.0033C18.3346 5.40088 14.6037 1.66992 10.0013 1.66992C5.39893 1.66992 1.66797 5.40088 1.66797 10.0033C1.66797 14.6056 5.39893 18.3366 10.0013 18.3366Z" stroke="#1B7FAE" stroke-width="1.6625" stroke-linecap="round" stroke-linejoin="round"/>
<path d="M7.23477 9.92745L8.60977 10.2691L7.81811 13.4692C7.63478 14.2192 8.00143 14.4691 8.63476 14.0274L12.9515 11.0358C13.4765 10.6691 13.4014 10.2441 12.7764 10.0858L11.4014 9.74414L12.1931 6.54411C12.3764 5.79411 12.0098 5.54413 11.3764 5.9858L7.05978 8.97749C6.53478 9.34415 6.60977 9.76911 7.23477 9.92745Z" stroke="#1B7FAE" stroke-width="1.375" stroke-miterlimit="10" stroke-linecap="round" stroke-linejoin="round"/>
</svg>
