<svg width="24" height="25" viewBox="0 0 24 25" fill="none" xmlns="http://www.w3.org/2000/svg">
<path d="M16 10.5H18M16 14.5H18M6.17 15.5C6.37614 14.914 6.7591 14.4065 7.26602 14.0474C7.77294 13.6884 8.37881 13.4955 9 13.4955C9.62119 13.4955 10.2271 13.6884 10.734 14.0474C11.2409 14.4065 11.6239 14.914 11.83 15.5M11 11.5C11 12.6046 10.1046 13.5 9 13.5C7.89543 13.5 7 12.6046 7 11.5C7 10.3954 7.89543 9.5 9 9.5C10.1046 9.5 11 10.3954 11 11.5ZM4 5.5H20C21.1046 5.5 22 6.39543 22 7.5V17.5C22 18.6046 21.1046 19.5 20 19.5H4C2.89543 19.5 2 18.6046 2 17.5V7.5C2 6.39543 2.89543 5.5 4 5.5Z" stroke="#1B7FAE" stroke-width="2" stroke-linecap="round" stroke-linejoin="round"/>
</svg>
