<svg width="24" height="25" viewBox="0 0 24 25" fill="none" xmlns="http://www.w3.org/2000/svg">
<g clip-path="url(#clip0_13632_17470)">
<path d="M14.0389 0.682617H5.22168C4.36855 0.687305 3.67949 1.37637 3.6748 2.22949V22.7701C3.6748 23.6232 4.36855 24.3123 5.21699 24.3123H20.7045C21.5576 24.3123 22.2467 23.6186 22.2514 22.7701L22.2092 7.51231L14.0389 0.682617Z" fill="#FAFAFA"/>
<path d="M20.7047 24.5H5.22188C4.26563 24.5 3.49219 23.7266 3.49219 22.7703V2.22969C3.49219 1.27344 4.26563 0.5 5.22188 0.5H14.1094L22.3969 7.42813L22.4391 22.7703C22.4344 23.7266 21.6609 24.5 20.7047 24.5ZM5.22188 0.870313C4.47188 0.870313 3.8625 1.47969 3.8625 2.22969V22.7703C3.8625 23.5203 4.47188 24.1297 5.22188 24.1297H20.7094C21.4594 24.1297 22.0688 23.5203 22.0688 22.7703L22.0266 7.60156L13.9734 0.870313H5.22188Z" fill="#1B7FAE"/>
<path d="M14.0391 0.682617L14.0156 7.35293C14.0156 7.35293 14.0391 7.51231 14.1797 7.51231H22.2094L14.0391 0.682617Z" fill="#1B7FAE"/>
<path d="M2.20293 12.0732H17.7654C18.117 12.0732 18.4029 12.3592 18.4029 12.7107V19.6482C18.4029 19.9998 18.117 20.2857 17.7654 20.2857H2.20293C1.85137 20.2857 1.56543 19.9998 1.56543 19.6482V12.7107C1.56543 12.3545 1.85137 12.0732 2.20293 12.0732Z" fill="#1B7FAE"/>
<path d="M5.03418 14.4922H6.81074C7.1998 14.4922 7.48574 14.5859 7.67793 14.7687C7.87012 14.9516 7.96855 15.2141 7.96855 15.5563C7.96855 15.9031 7.86543 16.1797 7.65449 16.3766C7.44355 16.5734 7.1248 16.6719 6.69355 16.6719H6.1123V17.9562H5.03887V14.4922H5.03418ZM6.10762 15.9641H6.37012C6.57637 15.9641 6.72168 15.9266 6.80605 15.8563C6.88574 15.7906 6.93262 15.6875 6.93262 15.5797C6.93262 15.4766 6.89512 15.3781 6.8248 15.3031C6.75449 15.2281 6.61855 15.1906 6.41699 15.1906H6.1123L6.10762 15.9641Z" fill="white"/>
<path d="M8.54053 14.4922H10.1296C10.4437 14.4922 10.6968 14.5344 10.889 14.6188C11.0765 14.6984 11.2405 14.825 11.3671 14.9844C11.4937 15.1484 11.5874 15.3359 11.639 15.5375C11.6952 15.7578 11.7233 15.9828 11.7233 16.2078C11.7233 16.5781 11.6812 16.8641 11.5968 17.0656C11.5171 17.2578 11.3999 17.4359 11.2452 17.5766C11.1093 17.7078 10.9452 17.8016 10.7624 17.8531C10.5562 17.9141 10.3405 17.9422 10.1249 17.9469H8.54053V14.4922ZM9.60928 15.275V17.1641H9.87178C10.0968 17.1641 10.2515 17.1406 10.3499 17.0891C10.453 17.0328 10.528 16.9391 10.5702 16.8312C10.6218 16.7094 10.6499 16.5078 10.6499 16.2313C10.6499 15.8656 10.589 15.6125 10.4718 15.4813C10.3546 15.3453 10.153 15.2797 9.87646 15.2797L9.60928 15.275Z" fill="white"/>
<path d="M12.2908 14.4922H14.9299V15.2328H13.3596V15.8375H14.7002V16.5359H13.3596V17.9469H12.2861V14.4922H12.2908Z" fill="white"/>
</g>
<defs>
<clipPath id="clip0_13632_17470">
<rect width="24" height="24" fill="white" transform="translate(0 0.5)"/>
</clipPath>
</defs>
</svg>
