<svg width="48" height="49" viewBox="0 0 48 49" fill="none" xmlns="http://www.w3.org/2000/svg">
<g clip-path="url(#clip0_13960_62028)">
<path d="M39.0933 28.7464H20.2034C20.0584 28.7465 19.9176 28.6978 19.8037 28.6081C19.6898 28.5184 19.6095 28.3929 19.5756 28.2519L15.3315 10.6606C15.3088 10.5661 15.3078 10.4677 15.3285 10.3727C15.3492 10.2778 15.3911 10.1887 15.4511 10.1122C15.511 10.0357 15.5875 9.97376 15.6748 9.93097C15.762 9.88818 15.8578 9.86567 15.955 9.86511H42.615C42.9342 9.86501 43.2493 9.93714 43.5367 10.0761C43.824 10.2151 44.0762 10.4172 44.2744 10.6675C44.4725 10.9177 44.6114 11.2096 44.6808 11.5212C44.7501 11.8327 44.748 12.156 44.6747 12.4666L41.153 27.1425C41.0393 27.6021 40.7743 28.0101 40.4008 28.3009C40.0272 28.5918 39.5668 28.7487 39.0933 28.7464ZM20.7108 27.4564H39.0933C39.2795 27.4611 39.4618 27.4024 39.6103 27.2899C39.7588 27.1774 39.8646 27.0178 39.9103 26.8372L43.4363 12.1656C43.4661 12.0457 43.4681 11.9206 43.442 11.7998C43.4159 11.6791 43.3625 11.5659 43.2858 11.469C43.2075 11.3709 43.1081 11.2917 42.9949 11.2373C42.8817 11.183 42.7578 11.1549 42.6322 11.1551H16.7763L20.7108 27.4564Z" fill="#175675" stroke="#175675" stroke-width="0.5"/>
<path d="M20.2032 28.7478C20.058 28.7487 19.9168 28.7003 19.8027 28.6105C19.6887 28.5206 19.6085 28.3947 19.5754 28.2533L14.4025 6.81783C14.3743 6.70382 14.3085 6.60268 14.2156 6.53086C14.1227 6.45904 14.0082 6.42075 13.8908 6.42223H11.1001C10.929 6.42223 10.765 6.35428 10.644 6.23332C10.523 6.11235 10.4551 5.9483 10.4551 5.77723C10.4551 5.60617 10.523 5.44211 10.644 5.32115C10.765 5.20019 10.929 5.13223 11.1001 5.13223H13.908C14.315 5.12992 14.7109 5.26552 15.031 5.51695C15.3512 5.76838 15.5767 6.12082 15.671 6.51683L20.831 27.9738C20.8485 28.067 20.8455 28.1629 20.8222 28.2548C20.7989 28.3467 20.7559 28.4325 20.6962 28.5061C20.6365 28.5798 20.5614 28.6395 20.4763 28.6813C20.3912 28.723 20.298 28.7457 20.2032 28.7478Z" fill="#175675" stroke="#175675" stroke-width="0.5"/>
<path d="M8.6665 8.79931H6.3058C5.8978 8.81467 5.4909 8.74758 5.10944 8.60204C4.72797 8.45651 4.37978 8.23552 4.0857 7.95231C3.79162 7.66909 3.55769 7.32947 3.3979 6.95375C3.23812 6.57803 3.15576 6.17394 3.15576 5.76566C3.15576 5.35738 3.23812 4.95329 3.3979 4.57757C3.55769 4.20185 3.79162 3.86223 4.0857 3.57901C4.37978 3.29579 4.72797 3.07481 5.10944 2.92927C5.4909 2.78374 5.8978 2.71665 6.3058 2.73201H8.6665C9.07449 2.71665 9.48139 2.78374 9.86285 2.92927C10.2443 3.07481 10.5925 3.29579 10.8866 3.57901C11.1807 3.86223 11.4146 4.20185 11.5744 4.57757C11.7342 4.95329 11.8165 5.35738 11.8165 5.76566C11.8165 6.17394 11.7342 6.57803 11.5744 6.95375C11.4146 7.32947 11.1807 7.66909 10.8866 7.95231C10.5925 8.23552 10.2443 8.45651 9.86285 8.60204C9.48139 8.74758 9.07449 8.81467 8.6665 8.79931ZM6.3058 4.02201C6.06953 4.01027 5.83335 4.04667 5.61158 4.129C5.38982 4.21133 5.18709 4.33787 5.01573 4.50094C4.84436 4.66401 4.70792 4.8602 4.61468 5.07761C4.52145 5.29502 4.47338 5.5291 4.47338 5.76566C4.47338 6.00221 4.52145 6.2363 4.61468 6.45371C4.70792 6.67112 4.84436 6.86731 5.01573 7.03038C5.18709 7.19345 5.38982 7.31999 5.61158 7.40231C5.83335 7.48464 6.06953 7.52104 6.3058 7.50931H8.6665C8.90276 7.52104 9.13894 7.48464 9.36071 7.40231C9.58248 7.31999 9.7852 7.19345 9.95656 7.03038C10.1279 6.86731 10.2644 6.67112 10.3576 6.45371C10.4508 6.2363 10.4989 6.00221 10.4989 5.76566C10.4989 5.5291 10.4508 5.29502 10.3576 5.07761C10.2644 4.8602 10.1279 4.66401 9.95656 4.50094C9.7852 4.33787 9.58248 4.21133 9.36071 4.129C9.13894 4.04667 8.90276 4.01027 8.6665 4.02201H6.3058Z" fill="#175675" stroke="#175675" stroke-width="0.5"/>
<path d="M41.2002 34.6719H20.5602C19.6034 34.6719 18.6858 34.2918 18.0092 33.6153C17.3326 32.9387 16.9525 32.0211 16.9525 31.0642C16.9525 30.1074 17.3326 29.1898 18.0092 28.5132C18.6858 27.8366 19.6034 27.4565 20.5602 27.4565H36.7927C36.9638 27.4565 37.1278 27.5245 37.2488 27.6455C37.3698 27.7664 37.4377 27.9305 37.4377 28.1015C37.4377 28.2726 37.3698 28.4367 37.2488 28.5576C37.1278 28.6786 36.9638 28.7465 36.7927 28.7465H20.5602C20.2483 28.7331 19.9369 28.7829 19.6448 28.893C19.3526 29.0031 19.0858 29.1711 18.8603 29.3871C18.6349 29.603 18.4554 29.8624 18.3329 30.1495C18.2103 30.4366 18.1471 30.7456 18.1471 31.0578C18.1471 31.37 18.2103 31.679 18.3329 31.9661C18.4554 32.2532 18.6349 32.5125 18.8603 32.7285C19.0858 32.9444 19.3526 33.1125 19.6448 33.2226C19.9369 33.3327 20.2483 33.3825 20.5602 33.369H41.2002C41.3713 33.369 41.5353 33.437 41.6563 33.558C41.7773 33.6789 41.8452 33.843 41.8452 34.014C41.8452 34.1851 41.7773 34.3492 41.6563 34.4701C41.5353 34.5911 41.3713 34.659 41.2002 34.659V34.6719Z" fill="#175675" stroke="#175675" stroke-width="0.5"/>
<path d="M24.3873 45.3025C23.5545 45.2999 22.7413 45.0507 22.0501 44.5863C21.3589 44.1219 20.8207 43.4632 20.5036 42.6932C20.1866 41.9232 20.1047 41.0766 20.2684 40.2601C20.4321 39.4436 20.834 38.694 21.4234 38.1057C22.0129 37.5175 22.7633 37.1171 23.5801 36.9551C24.3969 36.793 25.2434 36.8766 26.0128 37.1953C26.7821 37.5139 27.4398 38.0534 27.9028 38.7455C28.3658 39.4377 28.6133 40.2515 28.6142 41.0842C28.6107 42.2034 28.164 43.2757 27.3718 44.0663C26.5796 44.8568 25.5065 45.3014 24.3873 45.3025ZM24.3873 38.1645C23.8093 38.167 23.2451 38.3408 22.7659 38.6638C22.2866 38.9869 21.9138 39.4447 21.6946 39.9794C21.4754 40.5142 21.4196 41.1019 21.5342 41.6684C21.6489 42.2349 21.9288 42.7546 22.3387 43.1621C22.7485 43.5696 23.27 43.8464 23.8371 43.9577C24.4042 44.069 24.9916 44.0098 25.5251 43.7874C26.0585 43.5651 26.5141 43.1896 26.8343 42.7085C27.1546 42.2274 27.325 41.6621 27.3242 41.0842C27.3196 40.3083 27.0082 39.5657 26.4579 39.0186C25.9076 38.4715 25.1632 38.1645 24.3873 38.1645Z" fill="#175675" stroke="#175675" stroke-width="0.5"/>
<path d="M35.679 45.3025C34.8465 45.2991 34.0336 45.0492 33.343 44.5842C32.6523 44.1193 32.1149 43.4603 31.7984 42.6902C31.482 41.9202 31.4008 41.0736 31.5649 40.2575C31.7291 39.4413 32.1314 38.692 32.721 38.1042C33.3106 37.5164 34.0611 37.1165 34.8777 36.9548C35.6944 36.7931 36.5407 36.8769 37.3098 37.1957C38.0789 37.5145 38.7363 38.0539 39.1991 38.746C39.6619 39.438 39.9093 40.2516 39.9102 41.0842C39.9079 42.2045 39.461 43.278 38.6676 44.069C37.8742 44.86 36.7993 45.3036 35.679 45.3025ZM35.679 38.1645C35.1012 38.1679 34.5374 38.3424 34.0588 38.6659C33.5801 38.9894 33.208 39.4475 32.9894 39.9824C32.7709 40.5172 32.7157 41.1048 32.8308 41.671C32.9459 42.2372 33.2262 42.7565 33.6362 43.1636C34.0462 43.5706 34.5677 43.8471 35.1347 43.958C35.7017 44.069 36.2888 44.0094 36.8221 43.787C37.3553 43.5645 37.8106 43.1891 38.1307 42.708C38.4507 42.227 38.621 41.6619 38.6202 41.0842C38.6156 40.3075 38.3036 39.5643 37.7524 39.0171C37.2012 38.4699 36.4557 38.1633 35.679 38.1645Z" fill="#175675" stroke="#175675" stroke-width="0.5"/>
<path d="M29.9382 26.3269C29.8251 26.3264 29.7141 26.2968 29.6157 26.2409L24.1031 23.0546C24.0047 22.9983 23.923 22.9168 23.8664 22.8186C23.8097 22.7204 23.7801 22.6089 23.7806 22.4956V16.1316C23.7801 16.0182 23.8097 15.9067 23.8664 15.8085C23.923 15.7103 24.0047 15.6289 24.1031 15.5726L29.6157 12.4078C29.7137 12.3507 29.8249 12.3207 29.9382 12.3207C30.0516 12.3207 30.1628 12.3507 30.2607 12.4078L35.7776 15.5898C35.8755 15.6467 35.9567 15.7283 36.0133 15.8264C36.0698 15.9244 36.0998 16.0356 36.1001 16.1488V22.5128C36.0998 22.626 36.0698 22.7371 36.0133 22.8352C35.9567 22.9332 35.8755 23.0148 35.7776 23.0718L30.2607 26.2409C30.1624 26.2968 30.0514 26.3264 29.9382 26.3269ZM25.0706 22.1258L29.9382 24.9337L34.8101 22.1258V16.5014L29.9382 13.6978L25.0706 16.5014V22.1258Z" fill="#1B7FAE"/>
<path d="M29.9382 19.9586C29.8251 19.9581 29.714 19.9285 29.6157 19.8726L24.1031 16.7078C24.0049 16.6512 23.9233 16.5698 23.8665 16.4716C23.8098 16.3735 23.7799 16.2621 23.7799 16.1488C23.7799 16.0354 23.8098 15.924 23.8665 15.8259C23.9233 15.7278 24.0049 15.6463 24.1031 15.5898L29.6157 12.4078C29.7136 12.3507 29.8249 12.3207 29.9382 12.3207C30.0515 12.3207 30.1628 12.3507 30.2607 12.4078L35.7776 15.5898C35.8759 15.6463 35.9575 15.7278 36.0142 15.8259C36.071 15.924 36.1008 16.0354 36.1008 16.1488C36.1008 16.2621 36.071 16.3735 36.0142 16.4716C35.9575 16.5698 35.8759 16.6512 35.7776 16.7078L30.2607 19.8898C30.1608 19.9397 30.0498 19.9634 29.9382 19.9586ZM25.7199 16.1316L29.9425 18.5697L34.1651 16.1316L29.9382 13.6978L25.7199 16.1316Z" fill="#1B7FAE"/>
<path d="M29.9383 26.1674C29.7673 26.1674 29.6032 26.0995 29.4823 25.9785C29.3613 25.8575 29.2933 25.6935 29.2933 25.5224V19.3132C29.2933 19.1421 29.3613 18.9781 29.4823 18.8571C29.6032 18.7362 29.7673 18.6682 29.9383 18.6682C30.1094 18.6682 30.2735 18.7362 30.3944 18.8571C30.5154 18.9781 30.5833 19.1421 30.5833 19.3132V25.5095C30.585 25.5953 30.5696 25.6806 30.538 25.7603C30.5063 25.8401 30.4591 25.9127 30.399 25.974C30.339 26.0352 30.2673 26.0839 30.1882 26.1171C30.1091 26.1503 30.0241 26.1674 29.9383 26.1674Z" fill="#1B7FAE"/>
</g>
<defs>
<clipPath id="clip0_13960_62028">
<rect width="43" height="43" fill="white" transform="translate(2.5 2.51807)"/>
</clipPath>
</defs>
</svg>
