<svg width="60" height="61" viewBox="0 0 60 61" fill="none" xmlns="http://www.w3.org/2000/svg">
<path d="M0 6.05274C0 2.73903 2.68629 0.0527344 6 0.0527344H54C57.3137 0.0527344 60 2.73903 60 6.05273V54.0527C60 57.3664 57.3137 60.0527 54 60.0527H6C2.68629 60.0527 0 57.3664 0 54.0527V6.05274Z" fill="white"/>
<path d="M13.0942 51.6147C10.2464 48.6764 8.5895 44.7863 8.44405 40.697C8.2986 36.6077 9.67493 32.6098 12.3068 29.4766C14.9387 26.3435 18.639 24.2977 22.6921 23.7352C26.7451 23.1726 30.8628 24.1332 34.2485 26.4311L37.7941 29.682C38.6071 30.6796 39.3009 31.7686 39.8612 32.9272L38.6264 49.4333C38.0958 50.2095 37.5002 50.9393 36.846 51.6147H13.0942Z" fill="#50B7E0"/>
<path d="M39.8614 32.9274C39.3011 31.7689 38.6073 30.6798 37.7943 29.6823L34.2487 26.4306L34.1861 26.3882C32.0971 24.9953 29.6425 24.252 27.1316 24.252C24.6208 24.252 22.1661 24.9953 20.0771 26.3882C18.0679 27.7358 16.3789 29.5079 15.1295 31.5795C13.88 33.6511 13.1004 35.9717 12.8457 38.3775C12.5911 40.7833 12.8676 43.2156 13.6557 45.5029C14.4438 47.7902 15.7244 49.8766 17.4069 51.6149H36.8462C37.5004 50.9395 38.096 50.2098 38.6266 49.4335L39.8614 32.9274Z" fill="#2A9DCD"/>
<path d="M38.9652 31.3182C38.6079 30.7496 38.2164 30.2034 37.7929 29.6823L36.2066 28.2275C35.4431 28.749 34.6151 29.1691 33.7434 29.4774L30.6011 30.5484C30.4243 30.6102 30.2713 30.7258 30.1636 30.8789C30.0558 31.032 29.9987 31.215 30.0002 31.4023V36.3401C29.997 36.4977 30.0362 36.6532 30.1138 36.7904C30.1914 36.9276 30.3045 37.0414 30.4413 37.1198C30.578 37.1983 30.7333 37.2385 30.8909 37.2362C31.0485 37.2339 31.2026 37.1893 31.3371 37.107L34.4945 35.1333C36.1581 34.08 37.6634 32.7955 38.9652 31.3182Z" fill="#2A9DCD"/>
<path d="M28.5625 20.708H21.375C20.5811 20.708 19.9375 21.3516 19.9375 22.1455C19.9375 22.9394 20.5811 23.583 21.375 23.583H28.5625C29.3564 23.583 30 22.9394 30 22.1455C30 21.3516 29.3564 20.708 28.5625 20.708Z" fill="#50B7E0"/>
<path d="M24.9688 46.583C29.7322 46.583 33.5938 42.7215 33.5938 37.958C33.5938 33.1946 29.7322 29.333 24.9688 29.333C20.2053 29.333 16.3438 33.1946 16.3438 37.958C16.3438 42.7215 20.2053 46.583 24.9688 46.583Z" fill="#C3E4F4"/>
<path d="M24.9694 29.333C23.2974 29.3317 21.6614 29.8194 20.2631 30.736C19.1786 32.3926 18.6977 34.3721 18.9011 36.3416C19.1044 38.3111 19.9797 40.1505 21.3798 41.5505C22.7798 42.9506 24.6193 43.8259 26.5887 44.0293C28.5582 44.2326 30.5377 43.7517 32.1943 42.6673C33.0447 41.3663 33.5275 39.8596 33.5916 38.3066C33.6556 36.7537 33.2985 35.2123 32.5581 33.8457C31.8176 32.4792 30.7214 31.3383 29.3855 30.5438C28.0496 29.7494 26.5237 29.331 24.9694 29.333Z" fill="#E4F1FA"/>
<path d="M21.377 20.708L19.3788 17.1143C18.8865 15.9197 19.5578 14.2393 20.6582 14.2393H29.2832C30.3836 14.2393 31.0549 15.9197 30.5626 17.1143L28.5645 20.708H21.377Z" fill="#50B7E0"/>
<path d="M24.9688 37.2393C24.6844 37.2393 24.4065 37.155 24.1701 36.997C23.9337 36.839 23.7495 36.6145 23.6407 36.3519C23.5319 36.0892 23.5034 35.8002 23.5589 35.5213C23.6143 35.2425 23.7512 34.9863 23.9523 34.7853C24.1533 34.5843 24.4095 34.4473 24.6883 34.3919C24.9672 34.3364 25.2562 34.3649 25.5189 34.4737C25.7815 34.5825 26.006 34.7667 26.164 35.0031C26.3219 35.2395 26.4062 35.5174 26.4062 35.8018H27.8438C27.8414 35.1662 27.6285 34.5494 27.2383 34.0477C26.8482 33.546 26.3029 33.1877 25.6875 33.0288V32.208H24.25V33.0288C23.5732 33.203 22.9832 33.6182 22.5909 34.1965C22.1985 34.7748 22.0307 35.4765 22.1189 36.1697C22.2071 36.863 22.5453 37.5002 23.07 37.9618C23.5948 38.4234 24.2699 38.6776 24.9688 38.6768C25.2531 38.6768 25.531 38.7611 25.7674 38.919C26.0038 39.077 26.188 39.3015 26.2968 39.5642C26.4056 39.8268 26.4341 40.1159 26.3786 40.3947C26.3232 40.6735 26.1863 40.9297 25.9852 41.1307C25.7842 41.3318 25.528 41.4687 25.2492 41.5241C24.9703 41.5796 24.6813 41.5511 24.4186 41.4423C24.156 41.3335 23.9315 41.1493 23.7735 40.9129C23.6156 40.6765 23.5312 40.3986 23.5312 40.1143H22.0938C22.0961 40.7498 22.309 41.3666 22.6992 41.8683C23.0893 42.37 23.6346 42.7283 24.25 42.8872V43.708H25.6875V42.8872C26.3643 42.713 26.9543 42.2978 27.3466 41.7195C27.739 41.1412 27.9068 40.4396 27.8186 39.7463C27.7304 39.053 27.3922 38.4158 26.8675 37.9542C26.3427 37.4926 25.6676 37.2384 24.9688 37.2393Z" fill="#2A9DCD"/>
<path d="M51.5625 50.8955H8.4375V52.333H51.5625V50.8955Z" fill="#50B7E0"/>
<path d="M36.4688 37.958H33.5938V49.458H36.4688V37.958Z" fill="#50B7E0"/>
<path d="M41.5 32.9268H38.625V49.458H41.5V32.9268Z" fill="#50B7E0"/>
<path d="M46.5312 27.8955H43.6562V49.458H46.5312V27.8955Z" fill="#50B7E0"/>
<path d="M33.3283 35.8612C32.8427 33.9241 31.6994 32.2159 30.0939 31.0283C30.0375 31.1445 30.0068 31.2715 30.0041 31.4006V36.3384C30.0009 36.496 30.0401 36.6516 30.1177 36.7888C30.1953 36.926 30.3084 37.0398 30.4452 37.1182C30.5819 37.1967 30.7372 37.2368 30.8948 37.2346C31.0524 37.2323 31.2065 37.1877 31.341 37.1054L33.3283 35.8612Z" fill="#C3E4F4"/>
<path d="M51.5625 23.583H48.6875V49.458H51.5625V23.583Z" fill="#50B7E0"/>
<path d="M31.4375 40.833H28.5625V49.458H31.4375V40.833Z" fill="#50B7E0"/>
<path d="M21.3758 20.708C21.1301 20.7095 20.8889 20.7746 20.6758 20.897C20.7215 21.2415 20.8903 21.5577 21.1512 21.7872C21.412 22.0167 21.7472 22.144 22.0946 22.1455H29.2821C29.5279 22.144 29.7691 22.0789 29.9822 21.9565C29.9365 21.6121 29.7676 21.2958 29.5068 21.0663C29.2459 20.8368 28.9108 20.7095 28.5633 20.708H21.3758Z" fill="#8DCFEC"/>
<path d="M30.5627 17.1145C31.055 15.9199 30.3837 14.2395 29.2833 14.2395H21.8349C21.6621 14.236 21.4911 14.2743 21.3363 14.3513C21.1816 14.4282 21.0477 14.5415 20.9462 14.6814C20.8448 14.8213 20.7786 14.9836 20.7535 15.1546C20.7284 15.3256 20.7451 15.5002 20.8021 15.6633L20.8078 15.677L21.8723 17.5917C22.1556 18.1011 22.5699 18.5254 23.0724 18.8206C23.5749 19.1158 24.1472 19.2712 24.7301 19.2707H29.3638L30.5627 17.1145Z" fill="#2A9DCD"/>
<path d="M30 40.833V47.3018C30 47.683 30.1514 48.0486 30.421 48.3182C30.6906 48.5878 31.0563 48.7393 31.4375 48.7393V40.833H30Z" fill="#8DCFEC"/>
<path d="M35.0312 37.958V47.3018C35.0312 47.683 35.1827 48.0486 35.4523 48.3182C35.7219 48.5878 36.0875 48.7393 36.4688 48.7393V37.958H35.0312Z" fill="#8DCFEC"/>
<path d="M40.0625 32.9268V47.3018C40.0625 47.683 40.2139 48.0486 40.4835 48.3182C40.7531 48.5878 41.1188 48.7393 41.5 48.7393V32.9268H40.0625Z" fill="#8DCFEC"/>
<path d="M45.0938 27.8955V47.3018C45.0938 47.683 45.2452 48.0486 45.5148 48.3182C45.7844 48.5878 46.15 48.7393 46.5312 48.7393V27.8955H45.0938Z" fill="#8DCFEC"/>
<path d="M50.125 23.583V47.3018C50.125 47.683 50.2764 48.0486 50.546 48.3182C50.8156 48.5878 51.1813 48.7393 51.5625 48.7393V23.583H50.125Z" fill="#8DCFEC"/>
<path d="M49.7694 17.3088C49.8046 17.432 49.8061 17.5624 49.774 17.6864C49.7418 17.8104 49.6771 17.9236 49.5865 18.0142C49.4959 18.1048 49.3827 18.1696 49.2587 18.2017C49.1346 18.2339 49.0042 18.2323 48.881 18.1971L45.0939 17.1154C43.2827 23.1364 39.7507 28.9906 34.4945 32.2753L31.3371 34.249C31.2026 34.3313 31.0485 34.376 30.8909 34.3782C30.7333 34.3805 30.578 34.3403 30.4413 34.2619C30.3045 34.1834 30.1914 34.0696 30.1138 33.9324C30.0362 33.7952 29.997 33.6397 30.0002 33.4821V28.5436C29.999 28.3566 30.0563 28.1739 30.164 28.021C30.2717 27.8682 30.4245 27.7528 30.6011 27.6911L33.7434 26.6202C37.9481 25.1877 42.0687 20.8414 42.9377 16.3967L39.7328 14.7946C39.6201 14.7383 39.5242 14.6533 39.4547 14.5483C39.3852 14.4433 39.3445 14.3218 39.3367 14.1961C39.3289 14.0704 39.3543 13.9448 39.4103 13.832C39.4663 13.7192 39.551 13.6231 39.6559 13.5533L46.4301 9.03668C46.5242 8.97394 46.6318 8.93431 46.7442 8.921C46.8565 8.9077 46.9704 8.9211 47.0766 8.96011C47.1828 8.99912 47.2782 9.06265 47.3552 9.14552C47.4322 9.22839 47.4886 9.32826 47.5197 9.43702L49.7694 17.3088Z" fill="#2A9DCD"/>
<path d="M31.337 32.386L34.4945 30.4123C39.377 27.3612 42.7716 22.0921 44.6821 16.5318C44.8029 16.1871 45.0512 15.9019 45.376 15.7347C45.7007 15.5676 46.0772 15.5313 46.4279 15.6334L48.881 16.3341C48.9792 16.3625 49.0823 16.3693 49.1833 16.3539C49.2843 16.3385 49.3808 16.3013 49.4661 16.245L47.5197 9.43702C47.4886 9.32826 47.4322 9.22839 47.3552 9.14552C47.2782 9.06265 47.1827 8.99912 47.0766 8.96011C46.9704 8.9211 46.8565 8.9077 46.7442 8.921C46.6318 8.93431 46.5242 8.97394 46.4301 9.03668L39.6559 13.5533C39.551 13.6231 39.4663 13.7192 39.4103 13.832C39.3543 13.9448 39.3289 14.0704 39.3367 14.1961C39.3445 14.3218 39.3852 14.4433 39.4547 14.5483C39.5242 14.6533 39.6201 14.7383 39.7328 14.7946L42.9377 16.3967C42.0687 20.8414 37.9481 25.1877 33.7434 26.6209L30.601 27.6918C30.4246 27.7535 30.2719 27.8688 30.1642 28.0215C30.0565 28.1742 29.9991 28.3567 30.0002 28.5436V31.6198C29.9971 31.7773 30.0364 31.9328 30.1141 32.0699C30.1918 32.207 30.3049 32.3207 30.4416 32.399C30.5783 32.4774 30.7335 32.5175 30.8911 32.5152C31.0486 32.5129 31.2027 32.4683 31.337 32.386Z" fill="#50B7E0"/>
</svg>
