<svg width="20" height="21" viewBox="0 0 20 21" fill="none" xmlns="http://www.w3.org/2000/svg">
<path d="M17.9999 18.3483V12.4883C17.9999 9.60833 17.3799 7.40833 14.0199 7.40833C12.3999 7.40833 11.3199 8.28833 10.8799 9.12833H10.8399V7.66833H7.65991V18.3483H10.9799V13.0483C10.9799 11.6483 11.2399 10.3083 12.9599 10.3083C14.6599 10.3083 14.6799 11.8883 14.6799 13.1283V18.3283H17.9999V18.3483Z" fill="#FAFAFA"/>
<path d="M2.26001 7.66833H5.58001V18.3483H2.26001V7.66833Z" fill="#FAFAFA"/>
<path d="M3.92 2.34827C2.86 2.34827 2 3.20827 2 4.26827C2 5.32827 2.86 6.20827 3.92 6.20827C4.98 6.20827 5.84 5.32827 5.84 4.26827C5.84 3.20827 4.98 2.34827 3.92 2.34827Z" fill="#FAFAFA"/>
</svg>
