<svg width="48" height="49" viewBox="0 0 48 49" fill="none" xmlns="http://www.w3.org/2000/svg">
<path d="M44.5349 12.0648C44.5283 12.0314 44.5154 12.0005 44.5063 11.968C44.4936 11.9161 44.4777 11.865 44.4588 11.815C44.4429 11.7768 44.4208 11.7425 44.4016 11.7062C44.3818 11.6646 44.3599 11.6242 44.3359 11.585C44.2975 11.53 44.255 11.4779 44.2089 11.4293C44.1951 11.4141 44.1851 11.3968 44.1704 11.3821C44.159 11.3707 44.1455 11.3631 44.1338 11.3522C44.0819 11.3024 44.0261 11.2568 43.9669 11.2159C43.9314 11.1922 43.893 11.1756 43.8558 11.1556C43.7766 11.1046 43.6887 11.0686 43.5966 11.0494C43.5598 11.0387 43.5246 11.0243 43.4866 11.0168C43.4003 10.9994 43.3125 10.9906 43.2244 10.9904H35.4481C35.0934 10.9904 34.7532 11.1313 34.5024 11.3821C34.2516 11.6329 34.1107 11.9731 34.1107 12.3278C34.1107 12.6825 34.2516 13.0226 34.5024 13.2735C34.7532 13.5243 35.0934 13.6652 35.4481 13.6652H39.9954L27.0661 26.5949C26.8337 26.8268 26.5187 26.9571 26.1904 26.9572C25.862 26.9573 25.547 26.8271 25.3144 26.5953L21.9899 23.2707C21.6265 22.9074 21.1951 22.6191 20.7203 22.4225C20.2455 22.2259 19.7366 22.1247 19.2228 22.1247C18.7089 22.1248 18.2 22.226 17.7252 22.4227C17.2505 22.6194 16.8191 22.9077 16.4558 23.2711L3.83017 35.8968C3.58061 36.1479 3.44081 36.4878 3.44141 36.8418C3.44201 37.1959 3.58296 37.5353 3.83337 37.7856C4.08378 38.0359 4.42322 38.1767 4.77728 38.1771C5.13134 38.1776 5.47113 38.0376 5.72219 37.788L18.3478 25.1624C18.5836 24.937 18.8971 24.8113 19.2232 24.8113C19.5494 24.8113 19.8629 24.937 20.0987 25.1624L23.4224 28.4865C24.1571 29.2192 25.1523 29.6306 26.1899 29.6306C27.2274 29.6306 28.2227 29.2192 28.9573 28.4865L41.8874 15.5564V20.1041C41.887 20.28 41.9212 20.4542 41.9882 20.6168C42.0552 20.7794 42.1536 20.9272 42.2778 21.0517C42.402 21.1762 42.5495 21.275 42.712 21.3424C42.8744 21.4098 43.0485 21.4445 43.2244 21.4445C43.4003 21.4445 43.5744 21.4098 43.7368 21.3424C43.8993 21.275 44.0468 21.1762 44.171 21.0517C44.2952 20.9272 44.3936 20.7794 44.4606 20.6168C44.5276 20.4542 44.5618 20.28 44.5614 20.1041V12.3299C44.5614 12.2409 44.5525 12.1521 44.5349 12.0648Z" fill="#1B7FAE"/>
<path d="M43.2244 41.9009H39.1122V25.0709C39.1122 24.7163 38.9713 24.3762 38.7206 24.1255C38.4699 23.8747 38.1298 23.7339 37.7752 23.7339C37.4206 23.7339 37.0805 23.8747 36.8298 24.1255C36.5791 24.3762 36.4382 24.7163 36.4382 25.0709V41.9009H32.3007V31.5033C32.3007 31.1487 32.1598 30.8086 31.9091 30.5578C31.6583 30.3071 31.3183 30.1662 30.9637 30.1662C30.6091 30.1662 30.269 30.3071 30.0183 30.5578C29.7675 30.8086 29.6267 31.1487 29.6267 31.5033V41.9009H25.4891V33.0492C25.4891 32.6946 25.3483 32.3545 25.0975 32.1038C24.8468 31.8531 24.5067 31.7122 24.1521 31.7122C23.7975 31.7122 23.4575 31.8531 23.2067 32.1038C22.956 32.3545 22.8151 32.6946 22.8151 33.0492V41.9009H18.6776V31.0033C18.6776 30.6487 18.5367 30.3086 18.286 30.0579C18.0352 29.8072 17.6952 29.6663 17.3406 29.6663C16.986 29.6663 16.6459 29.8072 16.3952 30.0579C16.1444 30.3086 16.0036 30.6487 16.0036 31.0033V41.9009H11.8653V38.201C11.8653 38.0254 11.8307 37.8515 11.7635 37.6893C11.6963 37.5271 11.5978 37.3797 11.4737 37.2556C11.3495 37.1314 11.2021 37.0329 11.0399 36.9657C10.8777 36.8985 10.7038 36.864 10.5283 36.864C10.3527 36.864 10.1788 36.8985 10.0166 36.9657C9.85439 37.0329 9.707 37.1314 9.58285 37.2556C9.4587 37.3797 9.36021 37.5271 9.29302 37.6893C9.22583 37.8515 9.19125 38.0254 9.19125 38.201V41.901H4.77621C4.42208 41.9019 4.08277 42.0432 3.83268 42.2939C3.58259 42.5446 3.44214 42.8843 3.44214 43.2384C3.44214 43.5925 3.58259 43.9322 3.83268 44.1829C4.08277 44.4336 4.42208 44.5749 4.77621 44.5758H43.2244C43.5786 44.5749 43.9179 44.4336 44.168 44.1829C44.418 43.9322 44.5585 43.5925 44.5585 43.2384C44.5585 42.8843 44.418 42.5446 44.168 42.2939C43.9179 42.0432 43.5786 41.9018 43.2244 41.9009Z" fill="#175675"/>
<path d="M22.9249 20.677C23.0732 20.7712 23.2385 20.8351 23.4115 20.8653C23.5845 20.8955 23.7618 20.8914 23.9331 20.8531C24.1045 20.8147 24.2667 20.743 24.4103 20.642C24.554 20.541 24.6763 20.4127 24.7704 20.2644C25.9523 18.399 26.5424 16.2199 26.4635 14.013C26.3845 11.8062 25.6401 9.67481 24.328 7.89868C23.0158 6.12254 21.1973 4.78467 19.1111 4.0607C17.0249 3.33674 14.7685 3.26051 12.6382 3.84203C10.5079 4.42355 8.6032 5.63564 7.17418 7.31918C5.74516 9.00272 4.8586 11.079 4.63089 13.2755C4.40317 15.472 4.84495 17.686 5.89821 19.6269C6.95148 21.5677 8.56701 23.1448 10.5327 24.1509C10.8483 24.3127 11.2153 24.3424 11.5528 24.2335C11.7199 24.1796 11.8748 24.0934 12.0086 23.9796C12.1424 23.8659 12.2525 23.7269 12.3325 23.5706C12.4126 23.4143 12.4611 23.2438 12.4753 23.0688C12.4895 22.8937 12.469 22.7176 12.4151 22.5505C12.3612 22.3834 12.2749 22.2285 12.1612 22.0947C12.0475 21.9609 11.9085 21.8509 11.7522 21.7708C10.2664 21.0106 9.04514 19.8189 8.2488 18.3522C7.45247 16.8854 7.11826 15.2121 7.29004 13.552C7.46182 11.8919 8.13157 10.3225 9.21137 9.04984C10.2912 7.77722 11.7305 6.86084 13.3405 6.421C14.9505 5.98116 16.6559 6.03842 18.2327 6.58527C19.8096 7.13211 21.1843 8.14298 22.1763 9.48517C23.1683 10.8274 23.7312 12.4381 23.7913 14.1061C23.8513 15.774 23.4056 17.4211 22.5127 18.8311C22.4185 18.9794 22.3545 19.1447 22.3243 19.3177C22.2941 19.4908 22.2982 19.668 22.3365 19.8394C22.3748 20.0108 22.4464 20.173 22.5474 20.3168C22.6483 20.4605 22.7766 20.5829 22.9249 20.677Z" fill="#1B7FAE"/>
<path d="M15.4879 11.5526H17.5808C17.9355 11.5526 18.2756 11.4117 18.5265 11.1609C18.7773 10.9101 18.9182 10.5699 18.9182 10.2152C18.9182 9.86051 18.7773 9.52033 18.5265 9.26952C18.2756 9.0187 17.9355 8.8778 17.5808 8.8778H16.8249V8.29909C16.8254 8.12323 16.7911 7.94901 16.7241 7.78641C16.6571 7.62381 16.5587 7.47603 16.4345 7.35152C16.3103 7.22702 16.1628 7.12823 16.0003 7.06083C15.8379 6.99343 15.6638 6.95874 15.4879 6.95874C15.3121 6.95874 15.1379 6.99343 14.9755 7.06083C14.8131 7.12823 14.6655 7.22702 14.5413 7.35152C14.4171 7.47603 14.3187 7.62381 14.2517 7.78641C14.1847 7.94901 14.1505 8.12323 14.1509 8.29909V9.15823C13.4359 9.46786 12.8505 10.0162 12.4949 10.7095C12.1393 11.4028 12.0354 12.1981 12.2011 12.9595C12.3668 13.7208 12.7917 14.4011 13.4032 14.8839C14.0148 15.3668 14.775 15.6223 15.554 15.6069C15.7369 15.6071 15.9122 15.6798 16.0415 15.8091C16.1708 15.9384 16.2436 16.1137 16.2438 16.2966V16.5631C16.2435 16.7459 16.1707 16.9212 16.0414 17.0504C15.9121 17.1796 15.7368 17.2523 15.554 17.2524H13.4612C13.1065 17.2524 12.7663 17.3933 12.5155 17.6441C12.2647 17.895 12.1238 18.2351 12.1238 18.5898C12.1238 18.9445 12.2647 19.2847 12.5155 19.5355C12.7663 19.7864 13.1065 19.9273 13.4612 19.9273H14.1509V20.506C14.1505 20.6818 14.1847 20.856 14.2517 21.0186C14.3187 21.1812 14.4171 21.329 14.5413 21.4535C14.6655 21.578 14.8131 21.6768 14.9755 21.7442C15.1379 21.8116 15.3121 21.8463 15.4879 21.8463C15.6638 21.8463 15.8379 21.8116 16.0003 21.7442C16.1628 21.6768 16.3103 21.578 16.4345 21.4535C16.5587 21.329 16.6571 21.1812 16.7241 21.0186C16.7911 20.856 16.8254 20.6818 16.8249 20.506V19.6741C17.443 19.4215 17.9719 18.9909 18.3446 18.437C18.7173 17.883 18.9168 17.2307 18.9178 16.5631V16.2966C18.9155 15.8499 18.8247 15.4081 18.6507 14.9966C18.4767 14.5852 18.223 14.2123 17.9041 13.8995C17.5852 13.5867 17.2075 13.3401 16.7928 13.1741C16.3781 13.008 15.9346 12.9258 15.4879 12.9321C15.3054 12.9314 15.1306 12.8585 15.0018 12.7292C14.8729 12.5999 14.8006 12.4248 14.8006 12.2423C14.8006 12.0598 14.8729 11.8847 15.0018 11.7555C15.1306 11.6262 15.3054 11.5533 15.4879 11.5526Z" fill="#1B7FAE"/>
</svg>
