<svg width="60" height="61" viewBox="0 0 60 61" fill="none" xmlns="http://www.w3.org/2000/svg">
<path d="M0 6.02637C0 2.71266 2.68629 0.0263672 6 0.0263672H54C57.3137 0.0263672 60 2.71266 60 6.02637V54.0264C60 57.3401 57.3137 60.0264 54 60.0264H6C2.68629 60.0264 0 57.3401 0 54.0264V6.02637Z" fill="#F2F9FD"/>
<path d="M17.5404 35.7764H19.457C23.1619 35.7764 26.1654 38.7798 26.1654 42.4847V44.4014C26.1654 45.9893 24.8783 47.2764 23.2904 47.2764H13.707C12.1191 47.2764 10.832 45.9893 10.832 44.4014V42.4847C10.832 38.7798 13.8354 35.7764 17.5404 35.7764Z" fill="#C3E4F4"/>
<path d="M41.5 35.7764C43.8817 35.7764 45.8125 33.8456 45.8125 31.4639C45.8125 29.0821 43.8817 27.1514 41.5 27.1514C39.1183 27.1514 37.1875 29.0821 37.1875 31.4639C37.1875 33.8456 39.1183 35.7764 41.5 35.7764Z" fill="#C3E4F4"/>
<path d="M18.5 35.7764C20.8817 35.7764 22.8125 33.8456 22.8125 31.4639C22.8125 29.0821 20.8817 27.1514 18.5 27.1514C16.1183 27.1514 14.1875 29.0821 14.1875 31.4639C14.1875 33.8456 16.1183 35.7764 18.5 35.7764Z" fill="#C3E4F4"/>
<path d="M40.5404 35.7764H42.457C46.1619 35.7764 49.1654 38.7798 49.1654 42.4847V44.4014C49.1654 45.9893 47.8783 47.2764 46.2904 47.2764H36.707C35.1191 47.2764 33.832 45.9893 33.832 44.4014V42.4847C33.832 38.7798 36.8354 35.7764 40.5404 35.7764Z" fill="#C3E4F4"/>
<path d="M20.4167 34.339C18.0352 34.339 16.1042 32.4079 16.1042 30.0265C16.1042 29.0509 16.4396 28.1615 16.9858 27.439C15.3538 28.0533 14.1875 29.6173 14.1875 31.464C14.1875 33.8454 16.1185 35.7765 18.5 35.7765C19.9068 35.7765 21.1431 35.0932 21.9308 34.0515C21.4584 34.2297 20.9514 34.339 20.4167 34.339Z" fill="#8DCFEC"/>
<path d="M36.707 40.5677V39.6094C36.707 38.4977 36.9821 37.4522 37.4603 36.5293C35.3069 37.6458 33.832 39.8911 33.832 42.4844V44.401C33.832 45.989 35.1191 47.276 36.707 47.276H46.2904C47.8783 47.276 49.1654 45.989 49.1654 44.401H40.5404C38.4234 44.401 36.707 42.6847 36.707 40.5677Z" fill="#8DCFEC"/>
<path d="M43.4167 34.339C41.0352 34.339 39.1042 32.4079 39.1042 30.0265C39.1042 29.0509 39.4396 28.1615 39.9858 27.439C38.3538 28.0533 37.1875 29.6173 37.1875 31.464C37.1875 33.8454 39.1185 35.7765 41.5 35.7765C42.9068 35.7765 44.1431 35.0932 44.9308 34.0515C44.4584 34.2297 43.9514 34.339 43.4167 34.339Z" fill="#8DCFEC"/>
<path d="M26.1654 42.4848V44.4014C26.1654 45.9923 24.8812 47.2764 23.2904 47.2764H13.707C12.1162 47.2764 10.832 45.9923 10.832 44.4014V42.4848C10.832 39.8877 12.2983 37.6452 14.4545 36.5239C13.9754 37.4439 13.707 38.4981 13.707 39.6098V40.5681C13.707 42.686 15.4224 44.4014 17.5404 44.4014H19.457C19.457 41.3443 20.8945 38.6227 23.1274 36.8689C24.9579 38.0668 26.1654 40.1368 26.1654 42.4848Z" fill="#8DCFEC"/>
<path d="M30.0013 36.7345C32.9123 36.7345 35.2721 34.3747 35.2721 31.4637C35.2721 28.5527 32.9123 26.1929 30.0013 26.1929C27.0903 26.1929 24.7305 28.5527 24.7305 31.4637C24.7305 34.3747 27.0903 36.7345 30.0013 36.7345Z" fill="#50B7E0"/>
<path d="M32.1576 35.2976C29.1139 35.2976 26.6471 32.8308 26.6471 29.7872C26.6471 28.6908 26.9711 27.6712 27.5231 26.8125C25.8613 27.6999 24.7305 29.4489 24.7305 31.4643C24.7305 34.3757 27.0899 36.7351 30.0013 36.7351C31.5413 36.7351 32.9233 36.07 33.8873 35.0168C33.343 35.197 32.7623 35.2976 32.1576 35.2976Z" fill="#2A9DCD"/>
<path d="M35.75 50.1515H24.25C22.6649 50.1515 21.375 48.8616 21.375 47.2765V44.4015C21.375 40.1743 24.8145 36.7349 29.0417 36.7349H30.9583C35.1855 36.7349 38.625 40.1743 38.625 44.4015V47.2765C38.625 48.8616 37.3351 50.1515 35.75 50.1515Z" fill="#50B7E0"/>
<path d="M37.6667 48.2348H27.125C25.008 48.2348 23.2917 46.5185 23.2917 44.4015V42.4848C23.2917 40.8614 23.7996 39.3588 24.6602 38.1196C22.6774 39.5073 21.375 41.8035 21.375 44.4015V47.2765C21.375 48.8616 22.6649 50.1515 24.25 50.1515H35.75C37.0466 50.1515 38.1334 49.2833 38.4899 48.1007C38.2273 48.1793 37.9542 48.2348 37.6667 48.2348Z" fill="#2A9DCD"/>
<path d="M43.896 23.0158L41.5835 23.8381C40.9271 24.071 40.2419 23.5736 40.261 22.8769L40.3281 20.4236L38.8312 18.4781C38.4066 17.9261 38.6683 17.1202 39.3362 16.9228L41.6909 16.2289L43.0785 14.204C43.4724 13.6299 44.3196 13.6299 44.7134 14.204L46.1011 16.2289L48.4557 16.9228C49.1237 17.1192 49.3853 17.9261 48.9608 18.4781L47.4639 20.4236L47.5309 22.8769C47.5501 23.5726 46.8639 24.071 46.2084 23.8381L43.896 23.0158Z" fill="#50B7E0"/>
<path d="M16.103 23.0158L13.7906 23.8381C13.1341 24.071 12.4489 23.5736 12.4681 22.8769L12.5351 20.4236L11.0382 18.4781C10.6137 17.9261 10.8753 17.1202 11.5433 16.9228L13.8979 16.2289L15.2856 14.204C15.6794 13.6299 16.5266 13.6299 16.9205 14.204L18.3081 16.2289L20.6628 16.9228C21.3307 17.1192 21.5923 17.9261 21.1678 18.4781L19.6709 20.4236L19.738 22.8769C19.7571 23.5726 19.071 24.071 18.4155 23.8381L16.103 23.0158Z" fill="#50B7E0"/>
<path d="M29.9992 20.8592L27.2574 21.8338C26.4792 22.1108 25.6665 21.5195 25.6895 20.6943L25.7691 17.7858L23.9942 15.4791C23.4911 14.8245 23.8016 13.8691 24.5932 13.6353L27.3848 12.812L29.0303 10.4114C29.497 9.73005 30.5023 9.73005 30.969 10.4114L32.6144 12.812L35.4061 13.6353C36.1977 13.8691 36.5082 14.8245 36.005 15.4791L34.2302 17.7858L34.3097 20.6943C34.3327 21.5195 33.5191 22.1108 32.7419 21.8338L29.9992 20.8592Z" fill="#50B7E0"/>
<path d="M47.2501 21.4017C44.1701 21.4017 41.5806 19.3231 40.7929 16.4932L39.3362 16.9225C38.6683 17.119 38.4066 17.9259 38.8312 18.4779L40.3281 20.4233L40.261 22.8766C40.2419 23.5724 40.928 24.0707 41.5835 23.8378L43.896 23.0156L46.2084 23.8378C46.8649 24.0707 47.5501 23.5733 47.5309 22.8766L47.4897 21.3893C47.4092 21.3922 47.3316 21.4017 47.2501 21.4017Z" fill="#2A9DCD"/>
<path d="M33.3533 19.0055C29.8343 19.0055 26.9104 16.4746 26.2914 13.1348L24.5932 13.635C23.8016 13.8688 23.4911 14.8243 23.9942 15.4788L25.7691 17.7856L25.6895 20.6941C25.6665 21.5192 26.4802 22.1105 27.2574 21.8336L29.9992 20.8589L32.7409 21.8336C33.5191 22.1105 34.3318 21.5192 34.3088 20.6941L34.2609 18.9423C33.9628 18.9796 33.6609 19.0055 33.3533 19.0055Z" fill="#2A9DCD"/>
<path d="M19.4572 21.4017C16.3771 21.4017 13.7877 19.3231 12.9999 16.4932L11.5433 16.9225C10.8753 17.119 10.6137 17.9259 11.0382 18.4779L12.5351 20.4233L12.4681 22.8766C12.4489 23.5724 13.1351 24.0707 13.7906 23.8378L16.103 23.0156L18.4155 23.8378C19.0719 24.0707 19.7571 23.5733 19.738 22.8766L19.6968 21.3902C19.6163 21.3931 19.5377 21.4027 19.4562 21.4027L19.4572 21.4017Z" fill="#2A9DCD"/>
</svg>
