<svg width="226" height="99" viewBox="0 0 226 99" fill="none" xmlns="http://www.w3.org/2000/svg">
<path d="M38.7027 98.2627V75.7927H0.972656V52.9027L28.3427 0.262689H58.5127V55.9827H70.1327V75.7927H58.5127V98.2627H38.7027ZM44.3027 93.3627H53.3327V70.8227H65.6527V61.7927H53.3327V5.51269H31.9827L6.57266 53.3227V70.8227H44.3027V93.3627ZM16.5127 61.7927V52.8327L36.4627 15.3827H44.3027V61.7927H16.5127ZM22.7427 55.9827H38.7027V21.8927H38.0727L22.7427 52.8327V55.9827ZM93.295 98.2627L78.875 83.8427V14.6827L93.295 0.262689H132.705L147.125 14.6827V83.8427L132.705 98.2627H93.295ZM105.755 78.4527H124.445L128.715 74.1827V39.6027L105.755 78.4527ZM100.715 83.7027L98.685 80.7627L130.955 24.4127L133.615 26.1627V76.6327L126.475 83.7027H100.715ZM95.605 92.6627H130.185L141.875 80.9727V17.2027L130.185 5.51269H95.605L83.915 17.2027V80.9727L95.605 92.6627ZM92.245 71.3827V21.5427L99.315 14.5427H124.655L126.545 17.4127L94.765 73.0627L92.245 71.3827ZM97.285 57.3827L119.335 20.0727H101.625L97.285 24.3427V57.3827ZM193.605 98.2627V75.7927H155.875V52.9027L183.245 0.262689H213.415V55.9827H225.035V75.7927H213.415V98.2627H193.605ZM199.205 93.3627H208.235V70.8227H220.555V61.7927H208.235V5.51269H186.885L161.475 53.3227V70.8227H199.205V93.3627ZM171.415 61.7927V52.8327L191.365 15.3827H199.205V61.7927H171.415ZM177.645 55.9827H193.605V21.8927H192.975L177.645 52.8327V55.9827Z" fill="#A1A1AA"/>
</svg>
