<svg width="224" height="99" viewBox="0 0 224 99" fill="none" xmlns="http://www.w3.org/2000/svg">
<path d="M14.9122 98.5L0.492188 84.08V66.44H20.2322V74.42L24.5022 78.69H42.0022L46.2722 74.42V53.49L42.0022 49.22H25.2022L19.1822 55.94H0.492188V0.499993H65.6622V20.31H20.2322V31.51L22.3322 29.41H51.5922L66.0122 43.9V84.08L51.5922 98.5H14.9122ZM17.9222 93.18H48.9322L60.6922 81.42V46.42L48.9322 34.59H22.9622L17.0822 40.47H14.9822V14.78H60.2722V5.75H6.02219V50.55H17.2922L23.9422 43.62H44.5222L51.7322 50.69V77.08L44.5222 84.22H22.3322L14.7722 76.73V70.71H5.81219V81.07L17.9222 93.18ZM90.9278 98.5L76.5078 84.08V14.92L90.9278 0.499993H130.338L144.758 14.92V84.08L130.338 98.5H90.9278ZM103.388 78.69H122.078L126.348 74.42V39.84L103.388 78.69ZM98.3478 83.94L96.3178 81L128.588 24.65L131.248 26.4V76.87L124.108 83.94H98.3478ZM93.2378 92.9H127.818L139.508 81.21V17.44L127.818 5.75H93.2378L81.5478 17.44V81.21L93.2378 92.9ZM89.8778 71.62V21.78L96.9478 14.78H122.288L124.178 17.65L92.3978 73.3L89.8778 71.62ZM94.9178 57.62L116.968 20.31H99.2578L94.9178 24.58V57.62ZM169.678 98.5L155.258 84.08V14.92L169.678 0.499993H209.088L223.508 14.92V84.08L209.088 98.5H169.678ZM182.138 78.69H200.828L205.098 74.42V39.84L182.138 78.69ZM177.098 83.94L175.068 81L207.338 24.65L209.998 26.4V76.87L202.858 83.94H177.098ZM171.988 92.9H206.568L218.258 81.21V17.44L206.568 5.75H171.988L160.298 17.44V81.21L171.988 92.9ZM168.628 71.62V21.78L175.698 14.78H201.038L202.928 17.65L171.148 73.3L168.628 71.62ZM173.668 57.62L195.718 20.31H178.008L173.668 24.58V57.62Z" fill="#A1A1AA"/>
</svg>
