<svg width="25" height="25" viewBox="0 0 25 25" fill="none" xmlns="http://www.w3.org/2000/svg">
<path d="M22.472 10.3042H21.6665V10.2627H12.6665V14.2627H18.318C17.4935 16.5912 15.278 18.2627 12.6665 18.2627C9.353 18.2627 6.6665 15.5762 6.6665 12.2627C6.6665 8.9492 9.353 6.2627 12.6665 6.2627C14.196 6.2627 15.5875 6.83969 16.647 7.7822L19.4755 4.9537C17.6895 3.2892 15.3005 2.2627 12.6665 2.2627C7.144 2.2627 2.6665 6.7402 2.6665 12.2627C2.6665 17.7852 7.144 22.2627 12.6665 22.2627C18.189 22.2627 22.6665 17.7852 22.6665 12.2627C22.6665 11.5922 22.5975 10.9377 22.472 10.3042Z" fill="#FFC107"/>
<path d="M3.81934 7.6082L7.10484 10.0177C7.99384 7.8167 10.1468 6.2627 12.6663 6.2627C14.1958 6.2627 15.5873 6.83969 16.6468 7.7822L19.4753 4.9537C17.6893 3.2892 15.3003 2.2627 12.6663 2.2627C8.82534 2.2627 5.49434 4.4312 3.81934 7.6082Z" fill="#FF3D00"/>
<path d="M12.6667 22.2628C15.2497 22.2628 17.5967 21.2743 19.3712 19.6668L16.2762 17.0478C15.2722 17.8083 14.0242 18.2628 12.6667 18.2628C10.0657 18.2628 7.85716 16.6043 7.02516 14.2898L3.76416 16.8023C5.41916 20.0408 8.78016 22.2628 12.6667 22.2628Z" fill="#4CAF50"/>
<path d="M22.472 10.3042H21.6665V10.2627H12.6665V14.2627H18.318C17.922 15.3812 17.2025 16.3457 16.2745 17.0482L16.276 17.0472L19.371 19.6662C19.152 19.8652 22.6665 17.2627 22.6665 12.2627C22.6665 11.5922 22.5975 10.9377 22.472 10.3042Z" fill="#1976D2"/>
</svg>
