<svg width="77" height="81" viewBox="0 0 77 81" fill="none" xmlns="http://www.w3.org/2000/svg">
<path d="M38.7186 1.13939L38.5 1.01316L38.2814 1.13939L4.93939 20.3894L4.72076 20.5156V20.7681V59.2681V59.5205L4.93939 59.6467L38.2814 78.8967L38.5 79.023L38.7186 78.8967L72.0606 59.6467L72.2792 59.5205V59.2681V20.7681V20.5156L72.0606 20.3894L38.7186 1.13939Z" fill="#F2F9FD" stroke="url(#paint0_linear_12291_11481)" stroke-width="0.874525"/>
<path d="M38.5 6.01807L67.9449 23.0181V57.0181L38.5 74.0181L9.05514 57.0181V23.0181L38.5 6.01807Z" fill="url(#paint1_linear_12291_11481)"/>
<path d="M39.5 4.28602L38.5 3.70867L37.5 4.28602L8.05514 21.286L7.05514 21.8634V23.0181V57.0181V58.1728L8.05514 58.7501L37.5 75.7501L38.5 76.3275L39.5 75.7501L68.9449 58.7501L69.9449 58.1728V57.0181V23.0181V21.8634L68.9449 21.286L39.5 4.28602Z" stroke="url(#paint2_linear_12291_11481)" stroke-width="4"/>
<path d="M25.1667 32.0769L31.8333 28.1063V37.371H25.1667V32.0769ZM50.5 49.2828L38.5 55.9004L26.5 49.2828V55.9004L38.5 62.5181L50.5 55.9004V49.2828ZM45.1667 37.371H53.1667V32.0769L45.1667 28.1063V37.371ZM53.1667 42.6651H45.1667V50.6063L39.8333 53.2534V17.5181L45.1667 21.4887L53.1667 25.4592L58.5 28.1063V51.9298L53.1667 54.5769V47.9592V42.6651ZM25.1667 47.9592V42.6651H31.8333V50.6063L37.1667 53.2534V43.9887C35.8333 42.6651 35.8333 41.3416 34.5 40.0181C35.8333 38.6945 35.8333 37.371 37.1667 36.0475V17.5181L31.8333 21.4887L25.1667 25.4592L18.5 28.1063V51.9298L25.1667 54.5769V47.9592Z" fill="#1B7FAE"/>
<defs>
<linearGradient id="paint0_linear_12291_11481" x1="38.5" y1="1.51807" x2="38.5" y2="78.5181" gradientUnits="userSpaceOnUse">
<stop stop-color="#A9DEFF"/>
<stop offset="1" stop-color="#3595DF"/>
</linearGradient>
<linearGradient id="paint1_linear_12291_11481" x1="38.5" y1="5.69223" x2="38.5" y2="74.0237" gradientUnits="userSpaceOnUse">
<stop stop-color="#EEF5FF"/>
<stop offset="1" stop-color="#C0E3FE"/>
</linearGradient>
<linearGradient id="paint2_linear_12291_11481" x1="37.1704" y1="-109.207" x2="39.8296" y2="52.4731" gradientUnits="userSpaceOnUse">
<stop stop-color="#A9DEFF" stop-opacity="0"/>
<stop stop-color="#A9DEFF"/>
<stop offset="0.288093" stop-color="#3595DF"/>
<stop offset="0.290465" stop-color="#3595DF" stop-opacity="0"/>
</linearGradient>
</defs>
</svg>
