<svg width="105" height="89" viewBox="0 0 105 89" fill="none" xmlns="http://www.w3.org/2000/svg">
<path d="M1.07129 20.7219C1.07129 18.4734 1.07168 16.8171 1.17862 15.5082C1.28509 14.2051 1.49467 13.2904 1.88874 12.5169C2.60779 11.1057 3.75514 9.95838 5.16636 9.23933C5.93977 8.84525 6.85452 8.63568 8.15762 8.52921C9.46655 8.42226 11.1228 8.42188 13.3713 8.42188H82.7713C85.0197 8.42188 86.676 8.42226 87.985 8.52921C89.2881 8.63568 90.2028 8.84525 90.9762 9.23933C92.3874 9.95838 93.5348 11.1057 94.2538 12.5169C94.6479 13.2904 94.8575 14.2051 94.964 15.5082C95.0709 16.8171 95.0713 18.4734 95.0713 20.7219V67.1219C95.0713 69.3703 95.0709 71.0266 94.964 72.3355C94.8575 73.6386 94.6479 74.5534 94.2538 75.3268C93.5348 76.738 92.3874 77.8854 90.9762 78.6044C90.2028 78.9985 89.2881 79.2081 87.985 79.3145C86.676 79.4215 85.0197 79.4219 82.7713 79.4219H13.3713C11.1228 79.4219 9.46656 79.4215 8.15762 79.3145C6.85453 79.2081 5.93977 78.9985 5.16636 78.6044C3.75514 77.8854 2.60779 76.738 1.88874 75.3268C1.49467 74.5534 1.28509 73.6386 1.17862 72.3355C1.07168 71.0266 1.07129 69.3703 1.07129 67.1219V20.7219Z" fill="white"/>
<path d="M1.07129 20.7219C1.07129 18.4734 1.07168 16.8171 1.17862 15.5082C1.28509 14.2051 1.49467 13.2904 1.88874 12.5169C2.60779 11.1057 3.75514 9.95838 5.16636 9.23933C5.93977 8.84525 6.85452 8.63568 8.15762 8.52921C9.46655 8.42226 11.1228 8.42188 13.3713 8.42188H82.7713C85.0197 8.42188 86.676 8.42226 87.985 8.52921C89.2881 8.63568 90.2028 8.84525 90.9762 9.23933C92.3874 9.95838 93.5348 11.1057 94.2538 12.5169C94.6479 13.2904 94.8575 14.2051 94.964 15.5082C95.0709 16.8171 95.0713 18.4734 95.0713 20.7219V67.1219C95.0713 69.3703 95.0709 71.0266 94.964 72.3355C94.8575 73.6386 94.6479 74.5534 94.2538 75.3268C93.5348 76.738 92.3874 77.8854 90.9762 78.6044C90.2028 78.9985 89.2881 79.2081 87.985 79.3145C86.676 79.4215 85.0197 79.4219 82.7713 79.4219H13.3713C11.1228 79.4219 9.46656 79.4215 8.15762 79.3145C6.85453 79.2081 5.93977 78.9985 5.16636 78.6044C3.75514 77.8854 2.60779 76.738 1.88874 75.3268C1.49467 74.5534 1.28509 73.6386 1.17862 72.3355C1.07168 71.0266 1.07129 69.3703 1.07129 67.1219V20.7219Z" stroke="#E4E4E7"/>
<rect x="9.57129" y="17.9219" width="71" height="3" rx="1.5" fill="#E4E4E7"/>
<path d="M9.57129 28.8055C9.57129 27.7855 9.57129 27.2755 9.77294 26.8873C9.94286 26.5602 10.2096 26.2934 10.5367 26.1235C10.9249 25.9219 11.4349 25.9219 12.4549 25.9219H28.8213V34.9219H9.57129V28.8055Z" stroke="#F4F4F5" stroke-width="0.895522"/>
<rect x="10.6709" y="28.9375" width="11.55" height="4.02" rx="1.79104" fill="#C3E4F4"/>
<path d="M48.0713 25.9219H28.8213V34.9219H48.0713V25.9219Z" stroke="#F4F4F5" stroke-width="0.895522"/>
<rect width="14.3" height="4.02" rx="1.79104" transform="matrix(-1 0 0 1 44.2217 28.9375)" fill="#C3E4F4"/>
<path d="M67.3213 25.9219H48.0713V34.9219H67.3213V25.9219Z" stroke="#F4F4F5" stroke-width="0.895522"/>
<path d="M63.4717 30.9469C63.4717 30.7432 63.4717 30.6413 63.4634 30.5554C63.3811 29.7029 62.7063 29.0281 61.8537 28.9458C61.7679 28.9375 61.666 28.9375 61.4623 28.9375H51.1817C50.9783 28.9375 50.8767 28.9375 50.791 28.9457C49.9376 29.0279 49.2621 29.7034 49.1799 30.5568C49.1717 30.6425 49.1717 30.7442 49.1717 30.9475C49.1717 31.1508 49.1717 31.2525 49.1799 31.3382C49.2621 32.1916 49.9376 32.8671 50.791 32.9493C50.8767 32.9575 50.9783 32.9575 51.1817 32.9575H61.4611C61.665 32.9575 61.7669 32.9575 61.8528 32.9492C62.7059 32.8668 63.381 32.1917 63.4634 31.3386C63.4717 31.2527 63.4717 31.1508 63.4717 30.9469Z" fill="#C3E4F4"/>
<path d="M86.5713 28.8055C86.5713 27.7855 86.5713 27.2755 86.3696 26.8873C86.1997 26.5602 85.933 26.2934 85.6059 26.1235C85.2177 25.9219 84.7077 25.9219 83.6877 25.9219H67.3213V34.9219H86.5713V28.8055Z" stroke="#F4F4F5" stroke-width="0.895522"/>
<rect width="14.3" height="4.02" rx="1.79104" transform="matrix(-1 0 0 1 82.7217 28.9375)" fill="#C3E4F4"/>
<rect x="9.57129" y="34.9219" width="19.25" height="9" stroke="#F4F4F5" stroke-width="0.895522"/>
<rect x="11.0713" y="37.9219" width="9" height="4" rx="1.79104" fill="#E4E4E7"/>
<rect width="19.25" height="9" transform="matrix(-1 0 0 1 48.0713 34.9219)" stroke="#F4F4F5" stroke-width="0.895522"/>
<rect width="9.35" height="4.02" rx="1.79104" transform="matrix(-1 0 0 1 40.2705 37.9375)" fill="#E4E4E7"/>
<rect width="19.25" height="9" transform="matrix(-1 0 0 1 67.3213 34.9219)" stroke="#F4F4F5" stroke-width="0.895522"/>
<rect width="11" height="4" rx="1.79104" transform="matrix(-1 0 0 1 60.0713 37.9219)" fill="#E4E4E7"/>
<rect width="19.25" height="9" transform="matrix(-1 0 0 1 86.5713 34.9219)" stroke="#F4F4F5" stroke-width="0.895522"/>
<rect width="9.35" height="4.02" rx="1.79104" transform="matrix(-1 0 0 1 77.7705 37.9375)" fill="#E4E4E7"/>
<rect x="9.57129" y="43.9219" width="19.25" height="9" stroke="#F4F4F5" stroke-width="0.895522"/>
<rect x="10.6709" y="46.9375" width="9" height="4.02" rx="1.79104" fill="#E4E4E7"/>
<rect width="19.25" height="9" transform="matrix(-1 0 0 1 48.0713 43.9219)" stroke="#F4F4F5" stroke-width="0.895522"/>
<rect width="9.35" height="4.02" rx="1.79104" transform="matrix(-1 0 0 1 40.2705 46.9375)" fill="#E4E4E7"/>
<rect width="19.25" height="9" transform="matrix(-1 0 0 1 67.3213 43.9219)" stroke="#F4F4F5" stroke-width="0.895522"/>
<rect width="11" height="4" rx="1.79104" transform="matrix(-1 0 0 1 60.0713 46.9219)" fill="#E4E4E7"/>
<rect width="19.25" height="9" transform="matrix(-1 0 0 1 86.5713 43.9219)" stroke="#F4F4F5" stroke-width="0.895522"/>
<rect width="9.35" height="4.02" rx="1.79104" transform="matrix(-1 0 0 1 77.7705 46.9375)" fill="#E4E4E7"/>
<path d="M9.57129 52.9219H28.8213V61.9219H12.4532C11.4338 61.9219 10.9241 61.9219 10.5361 61.7203C10.2092 61.5505 9.94265 61.284 9.77282 60.957C9.57129 60.5691 9.57129 60.0594 9.57129 59.04V52.9219Z" stroke="#F4F4F5" stroke-width="0.895522"/>
<rect x="10.6709" y="55.9375" width="9" height="4.02" rx="1.79104" fill="#E4E4E7"/>
<rect width="19.25" height="9" transform="matrix(-1 0 0 1 48.0713 52.9219)" stroke="#F4F4F5" stroke-width="0.895522"/>
<rect width="9.35" height="4.02" rx="1.79104" transform="matrix(-1 0 0 1 40.2705 55.9375)" fill="#E4E4E7"/>
<rect width="19.25" height="9" transform="matrix(-1 0 0 1 67.3213 52.9219)" stroke="#F4F4F5" stroke-width="0.895522"/>
<rect width="11" height="4" rx="1.79104" transform="matrix(-1 0 0 1 60.0713 55.9219)" fill="#E4E4E7"/>
<path d="M86.5713 52.9219H67.3213V61.9219H83.6894C84.7088 61.9219 85.2185 61.9219 85.6064 61.7203C85.9334 61.5505 86.1999 61.284 86.3698 60.957C86.5713 60.5691 86.5713 60.0594 86.5713 59.04V52.9219Z" stroke="#F4F4F5" stroke-width="0.895522"/>
<path d="M77.7705 57.9481C77.7705 57.7442 77.7705 57.6423 77.7622 57.5564C77.6798 56.7033 77.0047 56.0282 76.1516 55.9458C76.0657 55.9375 75.9638 55.9375 75.7599 55.9375H70.4305C70.2272 55.9375 70.1255 55.9375 70.0398 55.9457C69.1864 56.0279 68.511 56.7034 68.4288 57.5568C68.4205 57.6425 68.4205 57.7442 68.4205 57.9475C68.4205 58.1508 68.4205 58.2525 68.4288 58.3382C68.511 59.1916 69.1864 59.8671 70.0398 59.9493C70.1255 59.9575 70.2272 59.9575 70.4305 59.9575H75.7611C75.9649 59.9575 76.0667 59.9575 76.1526 59.9492C77.0051 59.8669 77.6799 59.1921 77.7622 58.3396C77.7705 58.2537 77.7705 58.1518 77.7705 57.9481Z" fill="#E4E4E7"/>
<rect x="9.57129" y="66.9219" width="53" height="3" rx="1.5" fill="#E4E4E7"/>
<path fill-rule="evenodd" clip-rule="evenodd" d="M92.0429 4.77323C92.3626 3.62266 92.5365 2.4148 92.6973 1.24293C92.7311 0.990516 92.5757 0.752375 92.3504 0.729729C92.1253 0.689009 91.9152 0.865643 91.8817 1.09999C91.7268 2.23582 91.562 3.4075 91.2544 4.50407C91.1878 4.73775 91.31 4.99343 91.5276 5.07016C91.745 5.14688 91.9761 5.0069 92.0429 4.77323Z" fill="#E4E4E7"/>
<path fill-rule="evenodd" clip-rule="evenodd" d="M96.1726 8.36392C97.9441 6.53771 99.4971 4.47205 101.314 2.68292C101.484 2.52365 101.499 2.23469 101.347 2.05083C101.195 1.86696 100.935 1.84367 100.765 2.02101C98.9423 3.81003 97.3842 5.87559 95.6076 7.7017C95.4417 7.87913 95.4335 8.16815 95.5895 8.3521C95.7457 8.51798 96.0066 8.54135 96.1726 8.36392Z" fill="#E4E4E7"/>
<path fill-rule="evenodd" clip-rule="evenodd" d="M102.77 11.9865C101.777 12.0206 100.783 12.0546 99.7899 12.0887C99.5626 12.084 99.3827 12.2975 99.3886 12.5507C99.3947 12.8039 99.5845 12.9884 99.812 12.993C100.807 12.959 101.802 12.925 102.797 12.891C103.025 12.8775 103.203 12.6641 103.196 12.4109C103.188 12.1757 102.998 11.973 102.77 11.9865Z" fill="#E4E4E7"/>
<rect x="71.0713" y="54.9219" width="32.2785" height="32.3736" rx="16.1392" fill="#F4F4F5"/>
<rect x="71.0713" y="54.9219" width="32.2785" height="32.3736" rx="16.1392" stroke="white" stroke-width="2"/>
<path d="M95.7259 77.8168L95.6501 77.7383L93.792 79.5964L93.8353 79.6424L94.3283 80.1327C94.6452 80.4496 95.3169 80.2898 95.8315 79.7778C96.3435 79.2632 96.5033 78.5915 96.1864 78.2773L95.7259 77.8168Z" fill="#D4D4D8"/>
<path d="M95.194 77.2949L93.3359 79.153L93.791 79.5999L95.6491 77.7418L95.5949 77.6904L95.194 77.2949Z" fill="#C3E4F4"/>
<path fill-rule="evenodd" clip-rule="evenodd" d="M92.5513 69.1619C92.5513 70.7301 92.0502 72.1765 91.2024 73.3629L95.1949 77.293L93.3368 79.1511L89.3173 75.1912C88.1688 75.9577 86.7929 76.4019 85.3113 76.4019C81.3134 76.4019 78.0713 73.1624 78.0713 69.1619C78.0713 65.164 81.3134 61.9219 85.3113 61.9219C89.3119 61.9219 92.5513 65.164 92.5513 69.1619ZM90.5009 69.1619C90.5009 66.3504 88.223 64.0698 85.4088 64.0698C82.5973 64.0698 80.3194 66.3504 80.3194 69.1619C80.3194 71.9734 82.5973 74.254 85.4088 74.254C88.223 74.254 90.5009 71.9734 90.5009 69.1619Z" fill="#D4D4D8"/>
<circle cx="85.3856" cy="69.1894" r="5.81435" fill="white"/>
<path d="M86.111 65.5165L82.5519 70.731C82.4355 70.9046 82.4598 71.154 82.6088 71.2928C82.6711 71.3528 82.747 71.3812 82.8228 71.3812C82.923 71.3812 83.0259 71.3307 83.0937 71.2297L86.6473 66.0152C86.7665 65.8416 86.7421 65.5891 86.5931 65.4534C86.4442 65.3145 86.2275 65.3429 86.111 65.5165Z" fill="#C3E4F4"/>
<path d="M87.6016 67.2544L84.0453 72.4657C83.9261 72.6393 83.9532 72.8919 84.1022 73.0307C84.1644 73.0876 84.2403 73.116 84.3161 73.116C84.4163 73.116 84.5166 73.0655 84.5843 72.9645L88.1406 67.7531C88.2598 67.5795 88.2354 67.327 88.0865 67.1881C87.9375 67.0524 87.7208 67.0808 87.6016 67.2544Z" fill="#C3E4F4"/>
</svg>
