<svg width="100" height="101" viewBox="0 0 100 101" fill="none" xmlns="http://www.w3.org/2000/svg">
<rect x="20.5" y="20.5" width="58" height="58" rx="29" fill="#EA2B1F"/>
<mask id="mask0_17652_61655" style="mask-type:alpha" maskUnits="userSpaceOnUse" x="31" y="31" width="37" height="37">
<rect x="31.5" y="31.5" width="36" height="36" fill="#D9D9D9"/>
</mask>
<g mask="url(#mask0_17652_61655)">
<path d="M42.3614 59.1653L49.4992 52.0274L56.6371 59.1653C56.9738 59.502 57.4028 59.6656 57.8992 59.6656C58.3957 59.6656 58.8246 59.502 59.1614 59.1653C59.4981 58.8285 59.6617 58.3996 59.6617 57.9031C59.6617 57.4067 59.4981 56.9778 59.1614 56.641L52.0235 49.5031L59.1614 42.3653C59.4981 42.0285 59.6617 41.5996 59.6617 41.1031C59.6617 40.6067 59.4981 40.1778 59.1614 39.841C58.8246 39.5042 58.3957 39.3406 57.8992 39.3406C57.4028 39.3406 56.9738 39.5042 56.6371 39.841L49.4992 46.9789L42.3614 39.841C42.0246 39.5042 41.5957 39.3406 41.0992 39.3406C40.6028 39.3406 40.1738 39.5042 39.8371 39.841C39.5003 40.1778 39.3367 40.6067 39.3367 41.1031C39.3367 41.5996 39.5003 42.0285 39.8371 42.3653L46.975 49.5031L39.8371 56.641C39.5003 56.9778 39.3367 57.4067 39.3367 57.9031C39.3367 58.3996 39.5003 58.8285 39.8371 59.1653C40.1738 59.502 40.6028 59.6656 41.0992 59.6656C41.5957 59.6656 42.0246 59.502 42.3614 59.1653Z" fill="white" stroke="white" stroke-width="0.6"/>
</g>
</svg>
