<svg width="100" height="101" viewBox="0 0 100 101" fill="none" xmlns="http://www.w3.org/2000/svg">
<g clip-path="url(#clip0_17652_61355)">
<mask id="mask0_17652_61355" style="mask-type:luminance" maskUnits="userSpaceOnUse" x="0" y="0" width="101" height="101">
<path d="M100.5 0.5H0.5V100.5H100.5V0.5Z" fill="white"/>
</mask>
<g mask="url(#mask0_17652_61355)">
<g opacity="0.321903">
<path d="M61.2587 12.8754C61.2587 14.1873 60.1951 15.2509 58.8832 15.2509C57.5713 15.2509 56.5078 14.1873 56.5078 12.8754C56.5078 11.5635 57.5713 10.5 58.8832 10.5C60.1951 10.5 61.2587 11.5635 61.2587 12.8754Z" fill="#50B7E0"/>
</g>
<g opacity="0.689613">
<path d="M42.5618 18.4993L41.1511 19.3138C40.8957 19.4613 40.5691 19.3737 40.4216 19.1184L37.8744 14.7063C37.7269 14.4509 37.8144 14.1244 38.0698 13.977L39.4806 13.1624C39.7359 13.015 40.0625 13.1025 40.21 13.3578L42.7572 17.7699C42.9047 18.0254 42.8172 18.3518 42.5618 18.4993Z" fill="#C3E4F4"/>
</g>
<g opacity="0.689613">
<path d="M18.7786 28.0733L19.0959 28.181C19.4557 28.303 19.8526 28.2401 20.1571 28.0129L20.4257 27.8125C21.1925 27.2402 22.2828 27.7957 22.2706 28.7525L22.2663 29.0875C22.2614 29.4675 22.4437 29.8255 22.7539 30.0448L23.0276 30.2383C23.8088 30.7908 23.6174 31.9992 22.7037 32.2833L22.3836 32.3828C22.0208 32.4955 21.7368 32.7797 21.6241 33.1425L21.5245 33.4625C21.2405 34.3762 20.032 34.5676 19.4795 33.7864L19.286 33.5128C19.0666 33.2026 18.7086 33.0202 18.3287 33.0251L17.9936 33.0293C17.0369 33.0415 16.4814 31.9514 17.0537 31.1845L17.2542 30.9159C17.4814 30.6114 17.5442 30.2146 17.4222 29.8547L17.3146 29.5374C17.0073 28.6312 17.8724 27.7661 18.7786 28.0733Z" fill="#C3E4F4"/>
</g>
<g opacity="0.689613">
<path d="M16.5263 44.886L16.8826 46.4755C16.9471 46.7633 16.7662 47.0489 16.4784 47.1133L11.5072 48.2277C11.2195 48.2922 10.9339 48.1112 10.8693 47.8235L10.513 46.2339C10.4486 45.9462 10.6295 45.6606 10.9173 45.5962L15.8885 44.4818C16.1762 44.4173 16.4618 44.5983 16.5263 44.886Z" fill="#50B7E0"/>
</g>
<g opacity="0.689613">
<path d="M21.5769 65.2298C21.5769 66.5417 20.5134 67.6052 19.2015 67.6052C17.8896 67.6052 16.8262 66.5417 16.8262 65.2298C16.8262 63.918 17.8896 62.8545 19.2015 62.8545C20.5134 62.8545 21.5769 63.918 21.5769 65.2298Z" fill="#2A9DCD"/>
</g>
<g opacity="0.689613">
<path d="M18.7806 76.9254L19.0979 77.0331C19.4577 77.155 19.8545 77.0922 20.1591 76.8649L20.4276 76.6645C21.1945 76.0923 22.2847 76.6477 22.2725 77.6045L22.2682 77.9396C22.2633 78.3195 22.4457 78.6775 22.7559 78.8969L23.0295 79.0903C23.8108 79.6429 23.6193 80.8513 22.7056 81.1354L22.3856 81.2348C22.0228 81.3476 21.7388 81.6318 21.626 81.9946L21.5265 82.3145C21.2425 83.2283 20.034 83.4197 19.4815 82.6385L19.2879 82.3649C19.0685 82.0546 18.7105 81.8722 18.3307 81.8771L17.9955 81.8814C17.0388 81.8937 16.4834 80.8035 17.0556 80.0366L17.2561 79.768C17.4834 79.4634 17.5462 79.0667 17.4241 78.7068L17.3165 78.3895C17.0092 77.4833 17.8744 76.6182 18.7806 76.9254Z" fill="#2A9DCD"/>
</g>
<g opacity="0.689613">
<path d="M79.9225 25.8128C79.2027 24.8746 79.4255 23.4771 80.4163 22.7169C81.4071 21.9567 82.8148 22.1031 83.5346 23.0413C83.536 23.0431 83.5373 23.0449 83.5387 23.0466" stroke="#2A9DCD" stroke-width="1.78382" stroke-linecap="round" stroke-linejoin="round"/>
</g>
<g opacity="0.689613">
<path d="M86.3294 38.7462L86.6467 38.8538C87.0065 38.9759 87.4034 38.913 87.7078 38.6857L87.9765 38.4853C88.7434 37.9131 89.8335 38.4685 89.8213 39.4253L89.817 39.7604C89.8122 40.1403 89.9946 40.4983 90.3048 40.7177L90.5784 40.9112C91.3596 41.4637 91.1683 42.6721 90.2546 42.9562L89.9344 43.0556C89.5716 43.1684 89.2876 43.4525 89.1748 43.8154L89.0753 44.1354C88.7913 45.0491 87.5828 45.2405 87.0304 44.4592L86.8369 44.1857C86.6174 43.8754 86.2595 43.693 85.8795 43.6979L85.5444 43.7022C84.5877 43.7143 84.0322 42.6242 84.6045 41.8574L84.8049 41.5888C85.0322 41.2843 85.095 40.8874 84.9729 40.5276L84.8653 40.2103C84.558 39.3041 85.4232 38.4389 86.3294 38.7462Z" fill="#2A9DCD"/>
</g>
<g opacity="0.689613">
<path d="M88.5467 66.8945C90.162 67.1072 91.3063 68.6859 91.0816 70.3917C90.857 72.0975 89.3431 73.3261 87.7279 73.1134C87.7248 73.113 87.7218 73.1126 87.7188 73.1122" stroke="#2A9DCD" stroke-width="1.33786" stroke-linecap="round" stroke-linejoin="round"/>
</g>
<g opacity="0.689613">
<path d="M83.4583 86.9432L82.0475 87.7577C81.7921 87.9051 81.4656 87.8176 81.3182 87.5623L78.7708 83.1503C78.6234 82.8947 78.7109 82.5683 78.9662 82.4209L80.377 81.6063C80.6324 81.4588 80.9589 81.5463 81.1063 81.8017L83.6537 86.2138C83.8011 86.4692 83.7136 86.7957 83.4583 86.9432Z" fill="#C3E4F4"/>
</g>
<g opacity="0.689613">
<path d="M37.2247 89.5108C36.233 88.2183 36.54 86.2928 37.905 85.2455C39.27 84.1981 41.2093 84.3999 42.201 85.6924L42.2067 85.6997" stroke="#50B7E0" stroke-width="1.78382" stroke-linecap="round" stroke-linejoin="round"/>
</g>
<path d="M80.8601 48.3274C80.8601 63.3535 68.6789 75.5348 53.6527 75.5348C38.6265 75.5348 26.4453 63.3535 26.4453 48.3274C26.4453 33.3012 38.6265 21.1201 53.6527 21.1201C68.6789 21.1201 80.8601 33.3012 80.8601 48.3274Z" fill="#1B7FAE"/>
<path d="M41.6406 48.3751L49.6167 56.3513L65.6614 40.3066" stroke="white" stroke-width="4.94684" stroke-linecap="round" stroke-linejoin="round"/>
</g>
</g>
<defs>
<clipPath id="clip0_17652_61355">
<rect width="100" height="100" fill="white" transform="translate(0 0.5)"/>
</clipPath>
</defs>
</svg>
