<svg width="60" height="117" viewBox="0 0 60 117" fill="none" xmlns="http://www.w3.org/2000/svg">
<path fill-rule="evenodd" clip-rule="evenodd" d="M5.1333 9.72668L54.8667 9.72668V12.878C54.8667 13.2686 54.5535 13.588 54.1708 13.588L5.82948 13.588C5.44673 13.588 5.13353 13.2686 5.13353 12.878L5.1333 9.72668Z" fill="#175675"/>
<path opacity="0.1" fill-rule="evenodd" clip-rule="evenodd" d="M42.4505 9.72681V12.8782C42.4505 13.2688 42.2934 13.5882 42.1018 13.5882H54.1702C54.553 13.5882 54.8662 13.2688 54.8662 12.8782V9.72681H42.4505Z" fill="black"/>
<path opacity="0.1" fill-rule="evenodd" clip-rule="evenodd" d="M51.5207 9.72681V12.8782C51.5207 13.2688 51.2494 13.5882 50.918 13.5882H54.1704C54.5532 13.5882 54.8664 13.2688 54.8664 12.8782V9.72681H51.5207Z" fill="black"/>
<path opacity="0.12" fill-rule="evenodd" clip-rule="evenodd" d="M15.1622 12.878V9.72668H5.1333L5.1333 12.878C5.1333 13.2686 5.4465 13.588 5.82925 13.588H15.5774C15.3487 13.588 15.1622 13.2686 15.1622 12.878Z" fill="white"/>
<path opacity="0.12" fill-rule="evenodd" clip-rule="evenodd" d="M12.1606 12.8782V9.72681H8.74951V12.8782C8.74951 13.2688 9.01757 13.5882 9.34436 13.5882H12.6597C12.3847 13.5882 12.1606 13.2688 12.1606 12.8782Z" fill="white"/>
<path opacity="0.18" d="M54.8667 9.72668L5.1333 9.72668V11.3189L54.8667 11.3189V9.72668Z" fill="black"/>
<path fill-rule="evenodd" clip-rule="evenodd" d="M1.31959 0.901123L58.6806 0.901123C59.4063 0.901123 60 1.49482 60 2.22071V8.48313C60 9.20903 59.4063 9.80273 58.6806 9.80273L1.31959 9.80273C0.593704 9.80273 0 9.20903 0 8.48313L0 2.22071C0 1.49482 0.593704 0.901123 1.31959 0.901123Z" fill="#175675"/>
<path opacity="0.1" fill-rule="evenodd" clip-rule="evenodd" d="M40.7903 2.22071V8.48313C40.7903 9.20856 40.5093 9.80273 40.1662 9.80273H54.8664L58.6803 9.80273C59.406 9.80273 59.9997 9.20903 59.9997 8.48313V2.22071C59.9997 1.49482 59.4057 0.901123 58.6803 0.901123L40.1659 0.901123C39.8235 0.901123 40.7903 1.49528 40.7903 2.22071Z" fill="black"/>
<path opacity="0.1" fill-rule="evenodd" clip-rule="evenodd" d="M55.2353 2.22071V8.48313C55.2353 9.20903 54.7355 9.80273 54.1252 9.80273H54.8666H58.6805C59.4061 9.80273 59.9998 9.20903 59.9998 8.48313V2.22071C59.9998 1.49482 59.4061 0.901123 58.6805 0.901123L54.1252 0.901123C54.7355 0.901123 55.2353 1.49482 55.2353 2.22071Z" fill="black"/>
<path opacity="0.12" fill-rule="evenodd" clip-rule="evenodd" d="M16.5251 8.48337V2.22071C16.5251 1.49482 16.7918 0.901123 17.1176 0.901123L1.31959 0.901123C0.593704 0.901123 0 1.49482 0 2.22071L0 8.48313C0 9.20903 0.593704 9.80273 1.31959 9.80273H5.13329L17.1176 9.80273C16.7915 9.80296 16.5251 9.20926 16.5251 8.48337Z" fill="white"/>
<path opacity="0.12" fill-rule="evenodd" clip-rule="evenodd" d="M12.8998 8.48337V2.22071C12.8998 1.49482 13.2381 0.901123 13.652 0.901123L7.57103 0.901123C7.00358 0.901123 6.53931 1.49482 6.53931 2.22071L6.53931 8.48313C6.53931 9.20903 7.00358 9.80273 7.57103 9.80273H13.652C13.2381 9.80296 12.8998 9.20926 12.8998 8.48337Z" fill="white"/>
<path fill-rule="evenodd" clip-rule="evenodd" d="M5.1333 107.273H54.8667V104.122C54.8667 103.731 54.5535 103.412 54.1708 103.412H5.82948C5.44673 103.412 5.13353 103.731 5.13353 104.122L5.1333 107.273Z" fill="#175675"/>
<path opacity="0.1" fill-rule="evenodd" clip-rule="evenodd" d="M42.4505 107.273V104.122C42.4505 103.732 42.2934 103.412 42.1018 103.412H54.1702C54.553 103.412 54.8662 103.732 54.8662 104.122V107.273H42.4505Z" fill="black"/>
<path opacity="0.1" fill-rule="evenodd" clip-rule="evenodd" d="M51.5207 107.273V104.122C51.5207 103.731 51.2494 103.412 50.918 103.412H54.1704C54.5532 103.412 54.8664 103.731 54.8664 104.122V107.273H51.5207Z" fill="black"/>
<path opacity="0.12" fill-rule="evenodd" clip-rule="evenodd" d="M15.1622 104.122L15.1622 107.273H5.1333L5.1333 104.122C5.1333 103.731 5.4465 103.412 5.82925 103.412H15.5774C15.3487 103.412 15.1622 103.731 15.1622 104.122Z" fill="white"/>
<path opacity="0.12" fill-rule="evenodd" clip-rule="evenodd" d="M12.1609 104.122L12.1609 107.273H8.74976L8.74976 104.122C8.74976 103.731 9.01782 103.412 9.34461 103.412H12.6599C12.385 103.412 12.1609 103.731 12.1609 104.122Z" fill="white"/>
<path opacity="0.18" d="M54.8667 105.681H5.1333L5.1333 107.273H54.8667V105.681Z" fill="black"/>
<path fill-rule="evenodd" clip-rule="evenodd" d="M1.31935 116.099H58.6804C59.4061 116.099 59.9998 115.505 59.9998 114.779V108.517C59.9998 107.791 59.4061 107.197 58.6804 107.197H1.31935C0.59346 107.197 -0.000244141 107.791 -0.000244141 108.517L-0.000244141 114.779C-0.000244141 115.505 0.59346 116.099 1.31935 116.099Z" fill="#175675"/>
<path opacity="0.1" fill-rule="evenodd" clip-rule="evenodd" d="M40.7903 114.779V108.517C40.7903 107.791 40.5093 107.197 40.1662 107.197H54.8664H58.6803C59.406 107.197 59.9997 107.791 59.9997 108.517V114.779C59.9997 115.505 59.4057 116.099 58.6803 116.099H40.1659C39.8235 116.099 40.7903 115.505 40.7903 114.779Z" fill="black"/>
<path opacity="0.1" fill-rule="evenodd" clip-rule="evenodd" d="M55.235 114.779V108.517C55.235 107.791 54.7353 107.197 54.125 107.197H54.8663H58.6802C59.4059 107.197 59.9996 107.791 59.9996 108.517V114.779C59.9996 115.505 59.4059 116.099 58.6802 116.099H54.125C54.7353 116.099 55.235 115.505 55.235 114.779Z" fill="black"/>
<path opacity="0.12" fill-rule="evenodd" clip-rule="evenodd" d="M16.5248 108.517V114.779C16.5248 115.505 16.7915 116.099 17.1174 116.099H1.31935C0.59346 116.099 -0.000244141 115.505 -0.000244141 114.779L-0.000244141 108.517C-0.000244141 107.791 0.59346 107.197 1.31935 107.197H5.13304H17.1174C16.7913 107.197 16.5248 107.791 16.5248 108.517Z" fill="white"/>
<path opacity="0.12" fill-rule="evenodd" clip-rule="evenodd" d="M12.8996 108.517L12.8996 114.779C12.8996 115.505 13.2379 116.099 13.6517 116.099H7.57078C7.00334 116.099 6.53906 115.505 6.53906 114.779L6.53906 108.517C6.53906 107.791 7.00334 107.197 7.57078 107.197H13.6517C13.2379 107.197 12.8996 107.791 12.8996 108.517Z" fill="white"/>
<path fill-rule="evenodd" clip-rule="evenodd" d="M6.96842 13.5884C2.40074 42.5149 28.0289 52.8726 28.0289 58.5006C28.0289 64.1283 2.40074 74.4861 6.96842 103.413H30H53.0314C57.5991 74.4863 31.9711 64.1283 31.9711 58.5006C31.9711 52.8726 57.5991 42.5149 53.0314 13.5884H30L6.96842 13.5884Z" fill="#EAF3F7"/>
<path fill-rule="evenodd" clip-rule="evenodd" d="M6.96842 13.5881C2.40074 42.5146 28.0289 52.8724 28.0289 58.5003C28.0289 64.128 2.40074 74.4858 6.96842 103.412H8.27074L8.09341 102.107C5.56039 82.9952 16.8626 72.3954 23.7669 65.9221C26.9792 62.9103 29.3338 60.7022 29.3338 58.5003C29.3338 56.2987 26.9792 54.0904 23.7669 51.0786C16.8626 44.6052 5.56039 34.0054 8.09341 14.8932L8.27074 13.5881H6.96842ZM51.7293 103.412H53.0312C57.5989 74.4858 31.9709 64.1278 31.9709 58.5001C31.9709 52.8721 57.5989 42.5144 53.0312 13.5879H51.7293L51.9062 14.893C54.4394 34.0052 43.1372 44.605 36.2327 51.0784C33.0206 54.0902 30.6658 56.2985 30.6658 58.5001C30.6658 60.702 33.0206 62.9098 36.2327 65.9218C43.137 72.3952 54.4394 82.995 51.9062 102.107L51.7293 103.412Z" fill="#D8E6ED"/>
<path fill-rule="evenodd" clip-rule="evenodd" d="M52.1698 99.5226C42.4895 92.2282 33.2259 83.4169 29.9999 83.4169C26.7739 83.4169 17.5103 92.2282 7.83008 99.5226C7.88949 100.367 7.97678 101.228 8.09354 102.108L8.27086 103.412H30.0002H51.7294L51.9063 102.108C52.0228 101.228 52.1101 100.367 52.1698 99.5226Z" fill="#1B7FAE"/>
<path fill-rule="evenodd" clip-rule="evenodd" d="M30.6659 58.5006C30.6659 56.2989 33.0207 54.0906 36.2328 51.0788C39.6156 47.907 44.0541 43.7449 47.404 38.0761C32.28 38.0817 30.057 31.4948 10.55 34.0734C13.9234 41.8484 19.6334 47.203 23.7669 51.0786C26.9793 54.0904 29.3339 56.2987 29.3339 58.5003L29.3735 85.6501H29.9999H30.6263L30.6659 58.5006Z" fill="#1B7FAE"/>
<path opacity="0.08" fill-rule="evenodd" clip-rule="evenodd" d="M6.96836 103.412C6.89467 102.945 6.82972 102.483 6.771 102.025H53.2285C53.1702 102.483 53.105 102.944 53.0311 103.412H30H6.96836Z" fill="black"/>
<path opacity="0.08" fill-rule="evenodd" clip-rule="evenodd" d="M6.96836 13.5881C6.89467 14.0556 6.82972 14.5174 6.771 14.975L53.2285 14.975C53.1702 14.5174 53.105 14.0556 53.0311 13.5881H30L6.96836 13.5881Z" fill="black"/>
<path opacity="0.25" fill-rule="evenodd" clip-rule="evenodd" d="M28.8789 51.0786C27.6376 44.6052 25.6052 34.0054 26.0608 14.8932L26.0925 13.5881H11.8939L11.7463 14.8932C9.63563 34.0054 19.0533 44.6052 24.8063 51.0786C27.4828 54.0904 29.4447 56.2987 29.4447 58.5003C29.4447 60.7022 27.4826 62.91 24.8063 65.9221C19.0533 72.3954 9.63563 82.9952 11.7463 102.107L11.8939 103.412H26.0925L26.0608 102.107C25.6052 82.9952 27.6376 72.3954 28.8789 65.9221C29.4565 62.9103 29.8802 60.7022 29.8802 58.5003C29.8802 56.2985 29.4567 54.0904 28.8789 51.0786Z" fill="white"/>
<path opacity="0.35" fill-rule="evenodd" clip-rule="evenodd" d="M27.5025 51.0786C24.736 44.6052 20.2075 34.0054 21.2224 14.8932L21.2933 13.5881H17.0937L16.9884 14.8932C15.4841 34.0054 22.197 44.6052 26.2981 51.0786C28.2056 54.0904 29.6044 56.2987 29.6044 58.5003C29.6044 60.7022 28.2056 62.91 26.2981 65.9221C22.197 72.3954 15.4841 82.9952 16.9884 102.107L17.0937 103.412H21.2933L21.2224 102.107C20.2077 82.9952 24.736 72.3954 27.5025 65.9221C28.7897 62.9103 29.7332 60.7022 29.7332 58.5003C29.7332 56.2985 28.7897 54.0904 27.5025 51.0786Z" fill="white"/>
<path opacity="0.04" fill-rule="evenodd" clip-rule="evenodd" d="M41.3981 14.8932C42.7165 34.0054 36.8357 44.6052 33.2429 51.0786C31.5719 54.0904 30.3467 56.2987 30.3467 58.5003C30.3467 60.7022 31.5719 62.91 33.2429 65.9221C36.8357 72.3954 42.7165 82.9952 41.3981 102.107L41.3064 103.412H49.5061L49.6645 102.107C51.938 82.9952 41.7928 72.3954 35.5949 65.9221C32.7116 62.9103 30.5979 60.7022 30.5979 58.5003C30.5979 56.2987 32.7118 54.0904 35.5949 51.0786C41.7928 44.6052 51.938 34.0054 49.6645 14.8932L49.5061 13.5881L41.3064 13.5881L41.3981 14.8932Z" fill="black"/>
</svg>
